%TF.GenerationSoftware,KiCad,Pcbnew,8.0.5*%
%TF.CreationDate,2024-12-10T05:35:49-08:00*%
%TF.ProjectId,SmartPortAdapter,536d6172-7450-46f7-9274-416461707465,1*%
%TF.SameCoordinates,Original*%
%TF.FileFunction,Copper,L1,Top*%
%TF.FilePolarity,Positive*%
%FSLAX46Y46*%
G04 Gerber Fmt 4.6, Leading zero omitted, Abs format (unit mm)*
G04 Created by KiCad (PCBNEW 8.0.5) date 2024-12-10 05:35:49*
%MOMM*%
%LPD*%
G01*
G04 APERTURE LIST*
G04 Aperture macros list*
%AMRoundRect*
0 Rectangle with rounded corners*
0 $1 Rounding radius*
0 $2 $3 $4 $5 $6 $7 $8 $9 X,Y pos of 4 corners*
0 Add a 4 corners polygon primitive as box body*
4,1,4,$2,$3,$4,$5,$6,$7,$8,$9,$2,$3,0*
0 Add four circle primitives for the rounded corners*
1,1,$1+$1,$2,$3*
1,1,$1+$1,$4,$5*
1,1,$1+$1,$6,$7*
1,1,$1+$1,$8,$9*
0 Add four rect primitives between the rounded corners*
20,1,$1+$1,$2,$3,$4,$5,0*
20,1,$1+$1,$4,$5,$6,$7,0*
20,1,$1+$1,$6,$7,$8,$9,0*
20,1,$1+$1,$8,$9,$2,$3,0*%
%AMFreePoly0*
4,1,19,0.500000,-0.750000,0.000000,-0.750000,0.000000,-0.744911,-0.071157,-0.744911,-0.207708,-0.704816,-0.327430,-0.627875,-0.420627,-0.520320,-0.479746,-0.390866,-0.500000,-0.250000,-0.500000,0.250000,-0.479746,0.390866,-0.420627,0.520320,-0.327430,0.627875,-0.207708,0.704816,-0.071157,0.744911,0.000000,0.744911,0.000000,0.750000,0.500000,0.750000,0.500000,-0.750000,0.500000,-0.750000,
$1*%
%AMFreePoly1*
4,1,19,0.000000,0.744911,0.071157,0.744911,0.207708,0.704816,0.327430,0.627875,0.420627,0.520320,0.479746,0.390866,0.500000,0.250000,0.500000,-0.250000,0.479746,-0.390866,0.420627,-0.520320,0.327430,-0.627875,0.207708,-0.704816,0.071157,-0.744911,0.000000,-0.744911,0.000000,-0.750000,-0.500000,-0.750000,-0.500000,0.750000,0.000000,0.750000,0.000000,0.744911,0.000000,0.744911,
$1*%
G04 Aperture macros list end*
%TA.AperFunction,SMDPad,CuDef*%
%ADD10FreePoly0,90.000000*%
%TD*%
%TA.AperFunction,SMDPad,CuDef*%
%ADD11FreePoly1,90.000000*%
%TD*%
%TA.AperFunction,ComponentPad*%
%ADD12RoundRect,0.250000X0.600000X0.600000X-0.600000X0.600000X-0.600000X-0.600000X0.600000X-0.600000X0*%
%TD*%
%TA.AperFunction,ComponentPad*%
%ADD13C,1.700000*%
%TD*%
%TA.AperFunction,SMDPad,CuDef*%
%ADD14FreePoly0,270.000000*%
%TD*%
%TA.AperFunction,SMDPad,CuDef*%
%ADD15FreePoly1,270.000000*%
%TD*%
%TA.AperFunction,ComponentPad*%
%ADD16R,1.700000X1.700000*%
%TD*%
%TA.AperFunction,ComponentPad*%
%ADD17O,1.700000X1.700000*%
%TD*%
%TA.AperFunction,SMDPad,CuDef*%
%ADD18R,3.480000X1.846667*%
%TD*%
%TA.AperFunction,ViaPad*%
%ADD19C,0.600000*%
%TD*%
%TA.AperFunction,Conductor*%
%ADD20C,0.250000*%
%TD*%
%TA.AperFunction,Conductor*%
%ADD21C,0.500000*%
%TD*%
%TA.AperFunction,Conductor*%
%ADD22C,0.200000*%
%TD*%
G04 APERTURE END LIST*
D10*
%TO.P,-12V,1,A*%
%TO.N,-12V_D*%
X161500000Y-98050000D03*
D11*
%TO.P,-12V,2,B*%
%TO.N,-12V*%
X161500000Y-96750000D03*
%TD*%
D12*
%TO.P,J1,1,Pin_1*%
%TO.N,GND*%
X155250000Y-108225000D03*
D13*
%TO.P,J1,2,Pin_2*%
%TO.N,STEP0*%
X152710000Y-108225000D03*
%TO.P,J1,3,Pin_3*%
%TO.N,GND*%
X155250000Y-105685000D03*
%TO.P,J1,4,Pin_4*%
%TO.N,STEP1*%
X152710000Y-105685000D03*
%TO.P,J1,5,Pin_5*%
%TO.N,GND*%
X155250000Y-103145000D03*
%TO.P,J1,6,Pin_6*%
%TO.N,STEP2*%
X152710000Y-103145000D03*
%TO.P,J1,7,Pin_7*%
%TO.N,GND4*%
X155250000Y-100605000D03*
%TO.P,J1,8,Pin_8*%
%TO.N,STEP3*%
X152710000Y-100605000D03*
%TO.P,J1,9,Pin_9*%
%TO.N,-12V_D*%
X155250000Y-98065000D03*
%TO.P,J1,10,Pin_10*%
%TO.N,WR_REQ*%
X152710000Y-98065000D03*
%TO.P,J1,11,Pin_11*%
%TO.N,VCC_D*%
X155250000Y-95525000D03*
%TO.P,J1,12,Pin_12*%
%TO.N,SEL*%
X152710000Y-95525000D03*
%TO.P,J1,13,Pin_13*%
%TO.N,+12V_D*%
X155250000Y-92985000D03*
%TO.P,J1,14,Pin_14*%
%TO.N,DEVICE_ENABLE_D*%
X152710000Y-92985000D03*
%TO.P,J1,15,Pin_15*%
%TO.N,+12V_D*%
X155250000Y-90445000D03*
%TO.P,J1,16,Pin_16*%
%TO.N,RD_DATA*%
X152710000Y-90445000D03*
%TO.P,J1,17,Pin_17*%
%TO.N,+12V_D*%
X155250000Y-87905000D03*
%TO.P,J1,18,Pin_18*%
%TO.N,WR_DATA*%
X152710000Y-87905000D03*
%TO.P,J1,19,Pin_19*%
%TO.N,+12V_D*%
X155250000Y-85365000D03*
%TO.P,J1,20,Pin_20*%
%TO.N,WR_PROTECT*%
X152710000Y-85365000D03*
%TD*%
D14*
%TO.P,D1,1,A*%
%TO.N,DEVICE_ENABLE_D*%
X161500000Y-86200000D03*
D15*
%TO.P,D1,2,B*%
%TO.N,DEVICE_ENABLE*%
X161500000Y-87500000D03*
%TD*%
D16*
%TO.P,J3,1,Pin_1*%
%TO.N,STEP0*%
X146600000Y-112000000D03*
D17*
%TO.P,J3,2,Pin_2*%
%TO.N,STEP1*%
X146600000Y-109460000D03*
%TO.P,J3,3,Pin_3*%
%TO.N,STEP2*%
X146600000Y-106920000D03*
%TO.P,J3,4,Pin_4*%
%TO.N,STEP3*%
X146600000Y-104380000D03*
%TO.P,J3,5,Pin_5*%
%TO.N,SEL*%
X146600000Y-101840000D03*
%TO.P,J3,6,Pin_6*%
%TO.N,GND*%
X146600000Y-99300000D03*
%TD*%
D10*
%TO.P,D2,1,A*%
%TO.N,DEVICE_ENABLE_D*%
X161500000Y-84000000D03*
D11*
%TO.P,D2,2,B*%
%TO.N,DEVICE_ENABLE2*%
X161500000Y-82700000D03*
%TD*%
D10*
%TO.P,+12V,1,A*%
%TO.N,+12V_D*%
X161500000Y-91000000D03*
D11*
%TO.P,+12V,2,B*%
%TO.N,+12V*%
X161500000Y-89700000D03*
%TD*%
D10*
%TO.P,+5V,1,A*%
%TO.N,VCC_D*%
X161500000Y-94550000D03*
D11*
%TO.P,+5V,2,B*%
%TO.N,VCC*%
X161500000Y-93250000D03*
%TD*%
D16*
%TO.P,J2,1,Pin_1*%
%TO.N,WR_PROTECT*%
X146600000Y-81500000D03*
D17*
%TO.P,J2,2,Pin_2*%
%TO.N,WR_DATA*%
X146600000Y-84040000D03*
%TO.P,J2,3,Pin_3*%
%TO.N,RD_DATA*%
X146600000Y-86580000D03*
%TO.P,J2,4,Pin_4*%
%TO.N,DEVICE_ENABLE_D*%
X146600000Y-89120000D03*
%TO.P,J2,5,Pin_5*%
%TO.N,WR_REQ*%
X146600000Y-91660000D03*
%TO.P,J2,6,Pin_6*%
%TO.N,GND*%
X146600000Y-94200000D03*
%TD*%
D18*
%TO.P,U1,1,1*%
%TO.N,GND*%
X166700000Y-109365000D03*
%TO.P,U1,2,2*%
X166700000Y-106595000D03*
%TO.P,U1,3,3*%
X166700000Y-103825000D03*
%TO.P,U1,4,4*%
%TO.N,GND4*%
X166700000Y-101055000D03*
%TO.P,U1,5,5*%
%TO.N,-12V*%
X166700000Y-98285000D03*
%TO.P,U1,6,6*%
%TO.N,VCC*%
X166700000Y-95515000D03*
%TO.P,U1,7,7*%
%TO.N,+12V*%
X166700000Y-92745000D03*
%TO.P,U1,8,8*%
X166700000Y-89975000D03*
%TO.P,U1,9,9*%
%TO.N,DEVICE_ENABLE2*%
X166700000Y-87205000D03*
%TO.P,U1,10,10*%
%TO.N,WR_PROTECT*%
X166700000Y-84435000D03*
%TD*%
D19*
%TO.N,DEVICE_ENABLE*%
X163500000Y-88600000D03*
%TO.N,DEVICE_ENABLE_D*%
X158000000Y-89800000D03*
%TD*%
D20*
%TO.N,WR_PROTECT*%
X162300000Y-80800000D02*
X157275000Y-80800000D01*
X164000000Y-83800000D02*
X164000000Y-82500000D01*
X164635000Y-84435000D02*
X164000000Y-83800000D01*
X148845000Y-81500000D02*
X152710000Y-85365000D01*
X166455000Y-84190000D02*
X166700000Y-84435000D01*
X146600000Y-81500000D02*
X148845000Y-81500000D01*
X166700000Y-84435000D02*
X164635000Y-84435000D01*
X164000000Y-82500000D02*
X162300000Y-80800000D01*
X157275000Y-80800000D02*
X152710000Y-85365000D01*
%TO.N,WR_REQ*%
X152710000Y-97770000D02*
X152710000Y-98065000D01*
X146600000Y-91660000D02*
X152710000Y-97770000D01*
%TO.N,DEVICE_ENABLE*%
X163500000Y-88600000D02*
X162600000Y-88600000D01*
X162600000Y-88600000D02*
X161500000Y-87500000D01*
D21*
%TO.N,+12V_D*%
X155250000Y-90130000D02*
X155250000Y-92670000D01*
X161500000Y-91000000D02*
X156120000Y-91000000D01*
X156120000Y-91000000D02*
X155250000Y-90130000D01*
X155250000Y-87590000D02*
X155250000Y-90130000D01*
X155250000Y-85050000D02*
X155250000Y-87590000D01*
%TO.N,GND*%
X166700000Y-109365000D02*
X156390000Y-109365000D01*
X155250000Y-108225000D02*
X155250000Y-105685000D01*
X155250000Y-108350000D02*
X152700000Y-110900000D01*
X152700000Y-110900000D02*
X152100000Y-110900000D01*
X156390000Y-109365000D02*
X155250000Y-108225000D01*
X152100000Y-110900000D02*
X149700000Y-108500000D01*
X166700000Y-106595000D02*
X156160000Y-106595000D01*
D20*
X155250000Y-108225000D02*
X155250000Y-108350000D01*
D21*
X155250000Y-105685000D02*
X155250000Y-103145000D01*
X148300000Y-99300000D02*
X146600000Y-99300000D01*
X146600000Y-94200000D02*
X146600000Y-99300000D01*
X149700000Y-100700000D02*
X148300000Y-99300000D01*
D20*
X155250000Y-108650000D02*
X155250000Y-108225000D01*
D21*
X149700000Y-108500000D02*
X149700000Y-100700000D01*
X156160000Y-106595000D02*
X155250000Y-105685000D01*
X166700000Y-103825000D02*
X155930000Y-103825000D01*
X155930000Y-103825000D02*
X155250000Y-103145000D01*
D20*
%TO.N,RD_DATA*%
X146600000Y-86580000D02*
X148845000Y-86580000D01*
X148845000Y-86580000D02*
X152710000Y-90445000D01*
%TO.N,WR_DATA*%
X148845000Y-84040000D02*
X152710000Y-87905000D01*
X146600000Y-84040000D02*
X148845000Y-84040000D01*
D21*
%TO.N,VCC_D*%
X161500000Y-94550000D02*
X160525000Y-95525000D01*
X160525000Y-95525000D02*
X155250000Y-95525000D01*
X155250000Y-95525000D02*
X155250000Y-95210000D01*
X155475000Y-95300000D02*
X155250000Y-95525000D01*
%TO.N,-12V_D*%
X155550000Y-98050000D02*
X155250000Y-97750000D01*
X161500000Y-98050000D02*
X155550000Y-98050000D01*
%TO.N,VCC*%
X161500000Y-93250000D02*
X162350000Y-93250000D01*
X162350000Y-93250000D02*
X164615000Y-95515000D01*
X164615000Y-95515000D02*
X166700000Y-95515000D01*
%TO.N,-12V*%
X164585000Y-98285000D02*
X166700000Y-98285000D01*
X161500000Y-96750000D02*
X163050000Y-96750000D01*
X163050000Y-96750000D02*
X164585000Y-98285000D01*
%TO.N,+12V*%
X164275000Y-89975000D02*
X166700000Y-89975000D01*
X164000000Y-89700000D02*
X164275000Y-89975000D01*
D20*
X165025000Y-89975000D02*
X166700000Y-89975000D01*
D21*
X164200000Y-90800000D02*
X165025000Y-89975000D01*
X164200000Y-92000000D02*
X164200000Y-90800000D01*
X161500000Y-89700000D02*
X164000000Y-89700000D01*
D20*
X166700000Y-92745000D02*
X164945000Y-92745000D01*
D21*
X164945000Y-92745000D02*
X164200000Y-92000000D01*
D20*
%TO.N,DEVICE_ENABLE_D*%
X148845000Y-89120000D02*
X152710000Y-92985000D01*
X161500000Y-84000000D02*
X161500000Y-86200000D01*
X161500000Y-86200000D02*
X160745000Y-86200000D01*
X160745000Y-86200000D02*
X158000000Y-88945000D01*
X146600000Y-89120000D02*
X148845000Y-89120000D01*
X158000000Y-88945000D02*
X158000000Y-89800000D01*
%TO.N,DEVICE_ENABLE2*%
X164100000Y-86600000D02*
X164100000Y-84700000D01*
X166700000Y-87205000D02*
X164705000Y-87205000D01*
X164705000Y-87205000D02*
X164100000Y-86600000D01*
D22*
X162100000Y-82700000D02*
X161500000Y-82700000D01*
D20*
X164100000Y-84700000D02*
X162100000Y-82700000D01*
D21*
%TO.N,GND4*%
X155700000Y-101055000D02*
X155250000Y-100605000D01*
X166700000Y-101055000D02*
X155700000Y-101055000D01*
%TD*%
M02*
