%TF.GenerationSoftware,KiCad,Pcbnew,8.0.5*%
%TF.CreationDate,2024-12-10T05:35:49-08:00*%
%TF.ProjectId,SmartPortAdapter,536d6172-7450-46f7-9274-416461707465,1*%
%TF.SameCoordinates,Original*%
%TF.FileFunction,Legend,Bot*%
%TF.FilePolarity,Positive*%
%FSLAX46Y46*%
G04 Gerber Fmt 4.6, Leading zero omitted, Abs format (unit mm)*
G04 Created by KiCad (PCBNEW 8.0.5) date 2024-12-10 05:35:49*
%MOMM*%
%LPD*%
G01*
G04 APERTURE LIST*
%ADD10C,0.300000*%
%ADD11C,0.000000*%
G04 APERTURE END LIST*
D10*
D11*
%TO.C, *%
G36*
X160706059Y-110746930D02*
G01*
X160743000Y-110758957D01*
X160772135Y-110787007D01*
X160798630Y-110837401D01*
X160800833Y-110898801D01*
X160772135Y-110957884D01*
X160771404Y-110958801D01*
X160728065Y-110989723D01*
X160671165Y-111001969D01*
X160613102Y-110994929D01*
X160566269Y-110967994D01*
X160545680Y-110936936D01*
X160534420Y-110872445D01*
X160536792Y-110839237D01*
X160557748Y-110786174D01*
X160601305Y-110755145D01*
X160668624Y-110745047D01*
X160706059Y-110746930D01*
G37*
G36*
X160303784Y-110618185D02*
G01*
X160388229Y-110621391D01*
X160442494Y-110627556D01*
X160467536Y-110636759D01*
X160472705Y-110647756D01*
X160479608Y-110687186D01*
X160484354Y-110746573D01*
X160486943Y-110818528D01*
X160487376Y-110895658D01*
X160485651Y-110970574D01*
X160481769Y-111035886D01*
X160475731Y-111084202D01*
X160467536Y-111108132D01*
X160455584Y-111114143D01*
X160412727Y-111121473D01*
X160340060Y-111125813D01*
X160236627Y-111127242D01*
X160024827Y-111127242D01*
X160024827Y-111071505D01*
X160024827Y-111015768D01*
X159793918Y-111015768D01*
X159563009Y-111015768D01*
X159563009Y-110872445D01*
X159563009Y-110729123D01*
X159793918Y-110729123D01*
X160024827Y-110729123D01*
X160024827Y-110673386D01*
X160024827Y-110617649D01*
X160236627Y-110617649D01*
X160303784Y-110618185D01*
G37*
G36*
X160035988Y-112259103D02*
G01*
X160056388Y-112278899D01*
X160078148Y-112315297D01*
X160086955Y-112334044D01*
X160096941Y-112363832D01*
X160090308Y-112384591D01*
X160065173Y-112410085D01*
X160044710Y-112435028D01*
X160025871Y-112486906D01*
X160028893Y-112539816D01*
X160054482Y-112582372D01*
X160058077Y-112585498D01*
X160110535Y-112614234D01*
X160174886Y-112628267D01*
X160241089Y-112627604D01*
X160299107Y-112612251D01*
X160338898Y-112582212D01*
X160339187Y-112581814D01*
X160357959Y-112531148D01*
X160351808Y-112475138D01*
X160322083Y-112426310D01*
X160284920Y-112389147D01*
X160316120Y-112327505D01*
X160324419Y-112311256D01*
X160342711Y-112276619D01*
X160352367Y-112260144D01*
X160367194Y-112260330D01*
X160394581Y-112279256D01*
X160426656Y-112311109D01*
X160456420Y-112348843D01*
X160476872Y-112385415D01*
X160478003Y-112388277D01*
X160501290Y-112484999D01*
X160497421Y-112580000D01*
X160467584Y-112666723D01*
X160412964Y-112738611D01*
X160398133Y-112751805D01*
X160340371Y-112789341D01*
X160272888Y-112809355D01*
X160185543Y-112815267D01*
X160141955Y-112813141D01*
X160047678Y-112790288D01*
X159972502Y-112743123D01*
X159918175Y-112672581D01*
X159907701Y-112650091D01*
X159886040Y-112570000D01*
X159881856Y-112485805D01*
X159896362Y-112411991D01*
X159911515Y-112382708D01*
X159941171Y-112340793D01*
X159975998Y-112300381D01*
X160008577Y-112269930D01*
X160031490Y-112257900D01*
X160035988Y-112259103D01*
G37*
G36*
X160042113Y-112832480D02*
G01*
X160058208Y-112852344D01*
X160078148Y-112888588D01*
X160086955Y-112907335D01*
X160096941Y-112937123D01*
X160090308Y-112957882D01*
X160065173Y-112983377D01*
X160044710Y-113008319D01*
X160025871Y-113060197D01*
X160028893Y-113113108D01*
X160054482Y-113155663D01*
X160058077Y-113158790D01*
X160110535Y-113187525D01*
X160174886Y-113201559D01*
X160241089Y-113200896D01*
X160299107Y-113185542D01*
X160338898Y-113155503D01*
X160339187Y-113155106D01*
X160357959Y-113104439D01*
X160351808Y-113048429D01*
X160322083Y-112999602D01*
X160284920Y-112962438D01*
X160316120Y-112900796D01*
X160324445Y-112884481D01*
X160342545Y-112850063D01*
X160351902Y-112833900D01*
X160359405Y-112831687D01*
X160383396Y-112844172D01*
X160414499Y-112872456D01*
X160445688Y-112909686D01*
X160469939Y-112949012D01*
X160478696Y-112968731D01*
X160501425Y-113061432D01*
X160497286Y-113154370D01*
X160467418Y-113240282D01*
X160412964Y-113311903D01*
X160398133Y-113325097D01*
X160340371Y-113362632D01*
X160272888Y-113382646D01*
X160185543Y-113388558D01*
X160141955Y-113386432D01*
X160047678Y-113363579D01*
X159972502Y-113316415D01*
X159918175Y-113245872D01*
X159907201Y-113222458D01*
X159884764Y-113135752D01*
X159884633Y-113045679D01*
X159907294Y-112964792D01*
X159913741Y-112952690D01*
X159942495Y-112912212D01*
X159978516Y-112872835D01*
X160013470Y-112843011D01*
X160039024Y-112831192D01*
X160042113Y-112832480D01*
G37*
G36*
X160291143Y-106577154D02*
G01*
X160356327Y-106590244D01*
X160392401Y-106603987D01*
X160487811Y-106657193D01*
X160569397Y-106726220D01*
X160585417Y-106744423D01*
X160641507Y-106835495D01*
X160674666Y-106939888D01*
X160684815Y-107050601D01*
X160671876Y-107160632D01*
X160635769Y-107262979D01*
X160576416Y-107350641D01*
X160558616Y-107367616D01*
X160501291Y-107407575D01*
X160432798Y-107442335D01*
X160367210Y-107464253D01*
X160355110Y-107467246D01*
X160328012Y-107482310D01*
X160323229Y-107509415D01*
X160324193Y-107530787D01*
X160320593Y-107544170D01*
X160318981Y-107543373D01*
X160300892Y-107527508D01*
X160268118Y-107495473D01*
X160226343Y-107452782D01*
X160138522Y-107361394D01*
X160221017Y-107271446D01*
X160241443Y-107249425D01*
X160286013Y-107204406D01*
X160312942Y-107183368D01*
X160323620Y-107185440D01*
X160319435Y-107209750D01*
X160317299Y-107217561D01*
X160320405Y-107237989D01*
X160344578Y-107237885D01*
X160391618Y-107217442D01*
X160429215Y-107188832D01*
X160466341Y-107131874D01*
X160485398Y-107062532D01*
X160484209Y-106990066D01*
X160460600Y-106923738D01*
X160459502Y-106921897D01*
X160421364Y-106875344D01*
X160369131Y-106843602D01*
X160297209Y-106824343D01*
X160200007Y-106815238D01*
X160188799Y-106814774D01*
X160121095Y-106813537D01*
X160073089Y-106817324D01*
X160034215Y-106827732D01*
X159993910Y-106846355D01*
X159972862Y-106858397D01*
X159925480Y-106892442D01*
X159892480Y-106925465D01*
X159880310Y-106946990D01*
X159864759Y-107009101D01*
X159865399Y-107080706D01*
X159882781Y-107149134D01*
X159884532Y-107153080D01*
X159917829Y-107195852D01*
X159966293Y-107228561D01*
X160016074Y-107241599D01*
X160026852Y-107245109D01*
X160035376Y-107262485D01*
X160039608Y-107299818D01*
X160040752Y-107363025D01*
X160040752Y-107484452D01*
X159989379Y-107474177D01*
X159893506Y-107442213D01*
X159801492Y-107381765D01*
X159728402Y-107298757D01*
X159678657Y-107197131D01*
X159673001Y-107177097D01*
X159663190Y-107094939D01*
X159667226Y-107001456D01*
X159683936Y-106909468D01*
X159712144Y-106831798D01*
X159743413Y-106780492D01*
X159811516Y-106702464D01*
X159892677Y-106638284D01*
X159977129Y-106596621D01*
X160033774Y-106583246D01*
X160117537Y-106573863D01*
X160207437Y-106571763D01*
X160291143Y-106577154D01*
G37*
G36*
X160368284Y-106113911D02*
G01*
X160479344Y-106138428D01*
X160569441Y-106172670D01*
X160708803Y-106250347D01*
X160835611Y-106351299D01*
X160945120Y-106470824D01*
X161032585Y-106604219D01*
X161093261Y-106746783D01*
X161111287Y-106812733D01*
X161135587Y-106981489D01*
X161131526Y-107153333D01*
X161099588Y-107321554D01*
X161040258Y-107479442D01*
X160995189Y-107557040D01*
X160914267Y-107660714D01*
X160815997Y-107759000D01*
X160708079Y-107844408D01*
X160598212Y-107909449D01*
X160575358Y-107920136D01*
X160504673Y-107949437D01*
X160438384Y-107972117D01*
X160388334Y-107983970D01*
X160361999Y-107988086D01*
X160325709Y-107996594D01*
X160311473Y-108004396D01*
X160323271Y-108011487D01*
X160358732Y-108022115D01*
X160409589Y-108033272D01*
X160458803Y-108044606D01*
X160595657Y-108096348D01*
X160726476Y-108173941D01*
X160846402Y-108272964D01*
X160950574Y-108388998D01*
X161034136Y-108517620D01*
X161092228Y-108654411D01*
X161110181Y-108719706D01*
X161135348Y-108890059D01*
X161131791Y-109062752D01*
X161099949Y-109231598D01*
X161040258Y-109390413D01*
X161014020Y-109437109D01*
X160954863Y-109519410D01*
X160881098Y-109604253D01*
X160800134Y-109683983D01*
X160719382Y-109750943D01*
X160646251Y-109797478D01*
X160617889Y-109811317D01*
X160616211Y-109812136D01*
X160537173Y-109846568D01*
X160460562Y-109874845D01*
X160394921Y-109893992D01*
X160348792Y-109901035D01*
X160341082Y-109901177D01*
X160314457Y-109906496D01*
X160314501Y-109916857D01*
X160337995Y-109928631D01*
X160381722Y-109938184D01*
X160399767Y-109940969D01*
X160527710Y-109977235D01*
X160655382Y-110039901D01*
X160777356Y-110124689D01*
X160888207Y-110227320D01*
X160982509Y-110343515D01*
X161054836Y-110468995D01*
X161067016Y-110496818D01*
X161112524Y-110642996D01*
X161135026Y-110801238D01*
X161133784Y-110962546D01*
X161108059Y-111117919D01*
X161102496Y-111138999D01*
X161066982Y-111246103D01*
X161020414Y-111340204D01*
X160957261Y-111430907D01*
X160871991Y-111527817D01*
X160809467Y-111588229D01*
X160680762Y-111685646D01*
X160543057Y-111758497D01*
X160402427Y-111803219D01*
X160401166Y-111803485D01*
X160350188Y-111814833D01*
X160327112Y-111822424D01*
X160328592Y-111828302D01*
X160351285Y-111834517D01*
X160441204Y-111856988D01*
X160613941Y-111919178D01*
X160763771Y-112002277D01*
X160892591Y-112107703D01*
X161002293Y-112236876D01*
X161094772Y-112391212D01*
X161135911Y-112492725D01*
X161169642Y-112631011D01*
X161186017Y-112779439D01*
X161184074Y-112928434D01*
X161162852Y-113068421D01*
X161161983Y-113072067D01*
X161110362Y-113221092D01*
X161031074Y-113362418D01*
X160928027Y-113491831D01*
X160805130Y-113605118D01*
X160666291Y-113698065D01*
X160515418Y-113766458D01*
X160501113Y-113771294D01*
X160375096Y-113801219D01*
X160235832Y-113815776D01*
X160217696Y-113815577D01*
X160096603Y-113814247D01*
X159970690Y-113795915D01*
X159904133Y-113777748D01*
X159744332Y-113712120D01*
X159598594Y-113620646D01*
X159470156Y-113506507D01*
X159362259Y-113372882D01*
X159278140Y-113222951D01*
X159221040Y-113059896D01*
X159205128Y-112963335D01*
X159200213Y-112852002D01*
X159387955Y-112852002D01*
X159409341Y-112999335D01*
X159457246Y-113141512D01*
X159529860Y-113273814D01*
X159625374Y-113391520D01*
X159741978Y-113489908D01*
X159790370Y-113520761D01*
X159928369Y-113584927D01*
X160072035Y-113620501D01*
X160217696Y-113628517D01*
X160361682Y-113610009D01*
X160500322Y-113566010D01*
X160629945Y-113497555D01*
X160746882Y-113405679D01*
X160847460Y-113291414D01*
X160928010Y-113155795D01*
X160940873Y-113128216D01*
X160964585Y-113070800D01*
X160979197Y-113018617D01*
X160987618Y-112959309D01*
X160992753Y-112880513D01*
X160992870Y-112751143D01*
X160974733Y-112616282D01*
X160934624Y-112496099D01*
X160870306Y-112384243D01*
X160779547Y-112274359D01*
X160732083Y-112227077D01*
X160612660Y-112133784D01*
X160483725Y-112069167D01*
X160341327Y-112031540D01*
X160239811Y-112023713D01*
X160181512Y-112019218D01*
X160110715Y-112021322D01*
X159968464Y-112042526D01*
X159842064Y-112088422D01*
X159726134Y-112161331D01*
X159615293Y-112263576D01*
X159542935Y-112350204D01*
X159463835Y-112481530D01*
X159410971Y-112626255D01*
X159394896Y-112704234D01*
X159387955Y-112852002D01*
X159200213Y-112852002D01*
X159199890Y-112844689D01*
X159205788Y-112719947D01*
X159222234Y-112601027D01*
X159248640Y-112499848D01*
X159252794Y-112488326D01*
X159321908Y-112340348D01*
X159414077Y-112204402D01*
X159525101Y-112084440D01*
X159650777Y-111984410D01*
X159786903Y-111908264D01*
X159929279Y-111859952D01*
X159940694Y-111857325D01*
X160002063Y-111842452D01*
X160033856Y-111831760D01*
X160037446Y-111823101D01*
X160014209Y-111814325D01*
X159965519Y-111803284D01*
X159837578Y-111763295D01*
X159702365Y-111693162D01*
X159576262Y-111599783D01*
X159463718Y-111487644D01*
X159369183Y-111361236D01*
X159297109Y-111225046D01*
X159251945Y-111083564D01*
X159236336Y-110987908D01*
X159234429Y-110905757D01*
X159404382Y-110905757D01*
X159426104Y-111055823D01*
X159478111Y-111199083D01*
X159559828Y-111332506D01*
X159564012Y-111338003D01*
X159673863Y-111458534D01*
X159796293Y-111549808D01*
X159931377Y-111611859D01*
X160079192Y-111644723D01*
X160239811Y-111648435D01*
X160254894Y-111647342D01*
X160396907Y-111623621D01*
X160525098Y-111574668D01*
X160648081Y-111497293D01*
X160692558Y-111461619D01*
X160801824Y-111348398D01*
X160883368Y-111219985D01*
X160936554Y-111077549D01*
X160960747Y-110922257D01*
X160962524Y-110864284D01*
X160948919Y-110710579D01*
X160907066Y-110570489D01*
X160836072Y-110441641D01*
X160735046Y-110321659D01*
X160730805Y-110317443D01*
X160610336Y-110217282D01*
X160480931Y-110147185D01*
X160339780Y-110105984D01*
X160188331Y-110092878D01*
X160184075Y-110092510D01*
X160036206Y-110104772D01*
X159891994Y-110145280D01*
X159761079Y-110214528D01*
X159642391Y-110312950D01*
X159636781Y-110318607D01*
X159544882Y-110425987D01*
X159478729Y-110537810D01*
X159432911Y-110663123D01*
X159413517Y-110751914D01*
X159404382Y-110905757D01*
X159234429Y-110905757D01*
X159232310Y-110814503D01*
X159260047Y-110643065D01*
X159297595Y-110523299D01*
X159351635Y-110409403D01*
X159424857Y-110302819D01*
X159522615Y-110194395D01*
X159596451Y-110125201D01*
X159707735Y-110041876D01*
X159820913Y-109983975D01*
X159941689Y-109948142D01*
X159955977Y-109945200D01*
X160017737Y-109931535D01*
X160049539Y-109921233D01*
X160052569Y-109912397D01*
X160028012Y-109903131D01*
X159977053Y-109891538D01*
X159948006Y-109884914D01*
X159793414Y-109830544D01*
X159649264Y-109746140D01*
X159515429Y-109631632D01*
X159453054Y-109564609D01*
X159367727Y-109450222D01*
X159305138Y-109328652D01*
X159260047Y-109190854D01*
X159235843Y-109061081D01*
X159233825Y-108963445D01*
X159404891Y-108963445D01*
X159421294Y-109114655D01*
X159467489Y-109259556D01*
X159542479Y-109394952D01*
X159645268Y-109517647D01*
X159762039Y-109615251D01*
X159891607Y-109686213D01*
X160032900Y-109728060D01*
X160188331Y-109741787D01*
X160195956Y-109741754D01*
X160269549Y-109738160D01*
X160336394Y-109729601D01*
X160390217Y-109717456D01*
X160424743Y-109703102D01*
X160433698Y-109687917D01*
X160416417Y-109645916D01*
X160389362Y-109583125D01*
X160354968Y-109505030D01*
X160315260Y-109416072D01*
X160272267Y-109320691D01*
X160228015Y-109223330D01*
X160184531Y-109128428D01*
X160143841Y-109040428D01*
X160107974Y-108963770D01*
X160078956Y-108902896D01*
X160058813Y-108862247D01*
X160049573Y-108846263D01*
X160018823Y-108834910D01*
X159974047Y-108841344D01*
X159938144Y-108869468D01*
X159930406Y-108882267D01*
X159914847Y-108943699D01*
X159922873Y-109017477D01*
X159954015Y-109096902D01*
X159994676Y-109173376D01*
X159935253Y-109234230D01*
X159931994Y-109237554D01*
X159895608Y-109271076D01*
X159871654Y-109282979D01*
X159853616Y-109276649D01*
X159832108Y-109252031D01*
X159802092Y-109199637D01*
X159776377Y-109136456D01*
X159760455Y-109074408D01*
X159755758Y-109047213D01*
X159745617Y-109020627D01*
X159723876Y-109010719D01*
X159680409Y-109009248D01*
X159651755Y-109008968D01*
X159623131Y-109004247D01*
X159612405Y-108988107D01*
X159610783Y-108953511D01*
X159611135Y-108930531D01*
X159617042Y-108907645D01*
X159637219Y-108899070D01*
X159680454Y-108897775D01*
X159701282Y-108897585D01*
X159735192Y-108893316D01*
X159751520Y-108878395D01*
X159760424Y-108846280D01*
X159768562Y-108816534D01*
X159801496Y-108749769D01*
X159847917Y-108693629D01*
X159899960Y-108658687D01*
X159906971Y-108655877D01*
X159941641Y-108641447D01*
X159958609Y-108633459D01*
X159958637Y-108632289D01*
X159951599Y-108611537D01*
X159935286Y-108570279D01*
X159912637Y-108515412D01*
X159886592Y-108453831D01*
X159860090Y-108392435D01*
X159836072Y-108338121D01*
X159817477Y-108297785D01*
X159807245Y-108278324D01*
X159801060Y-108279120D01*
X159775084Y-108292683D01*
X159736795Y-108317482D01*
X159700728Y-108344705D01*
X159606361Y-108437983D01*
X159524462Y-108550708D01*
X159460840Y-108674012D01*
X159421306Y-108799029D01*
X159419276Y-108809120D01*
X159404891Y-108963445D01*
X159233825Y-108963445D01*
X159232464Y-108897636D01*
X159260047Y-108732094D01*
X159297595Y-108612327D01*
X159351635Y-108498432D01*
X159424857Y-108391847D01*
X159522615Y-108283423D01*
X159579819Y-108229815D01*
X160007671Y-108229815D01*
X160015476Y-108268868D01*
X160035570Y-108325029D01*
X160067903Y-108401388D01*
X160112426Y-108501033D01*
X160169091Y-108627054D01*
X160207707Y-108712814D01*
X160264628Y-108836345D01*
X160310454Y-108931517D01*
X160345583Y-108999118D01*
X160370417Y-109039941D01*
X160385353Y-109054773D01*
X160401920Y-109054830D01*
X160429484Y-109035485D01*
X160447454Y-108996103D01*
X160454385Y-108944018D01*
X160448836Y-108886566D01*
X160429362Y-108831084D01*
X160428211Y-108828858D01*
X160415396Y-108800645D01*
X160415333Y-108779540D01*
X160431303Y-108755691D01*
X160466584Y-108719245D01*
X160529240Y-108656589D01*
X160556731Y-108698545D01*
X160565430Y-108713947D01*
X160586120Y-108763400D01*
X160602901Y-108819138D01*
X160621581Y-108897775D01*
X160689473Y-108897775D01*
X160715316Y-108898004D01*
X160744612Y-108902542D01*
X160755661Y-108918608D01*
X160757366Y-108953511D01*
X160757005Y-108976700D01*
X160751051Y-108999448D01*
X160730800Y-109007964D01*
X160687477Y-109009248D01*
X160660966Y-109009536D01*
X160630014Y-109014586D01*
X160615248Y-109031884D01*
X160606439Y-109068966D01*
X160604332Y-109078518D01*
X160577756Y-109135503D01*
X160524538Y-109196579D01*
X160453788Y-109264474D01*
X160529934Y-109439140D01*
X160530170Y-109439682D01*
X160560596Y-109507336D01*
X160587271Y-109562762D01*
X160607326Y-109600252D01*
X160617889Y-109614097D01*
X160622394Y-109612066D01*
X160646120Y-109593353D01*
X160683798Y-109559238D01*
X160729640Y-109514859D01*
X160750459Y-109493575D01*
X160846638Y-109374452D01*
X160913084Y-109248831D01*
X160951555Y-109112556D01*
X160963810Y-108961474D01*
X160963564Y-108938989D01*
X160949411Y-108792328D01*
X160911755Y-108662676D01*
X160848133Y-108543722D01*
X160756082Y-108429156D01*
X160733934Y-108406276D01*
X160613496Y-108306731D01*
X160480867Y-108236532D01*
X160335316Y-108195371D01*
X160176112Y-108182937D01*
X160154673Y-108183056D01*
X160144323Y-108183027D01*
X160100305Y-108182904D01*
X160058470Y-108184414D01*
X160029119Y-108190677D01*
X160012202Y-108204781D01*
X160007671Y-108229815D01*
X159579819Y-108229815D01*
X159596451Y-108214229D01*
X159707735Y-108130905D01*
X159820913Y-108073003D01*
X159941689Y-108037171D01*
X159955977Y-108034228D01*
X160017737Y-108020563D01*
X160049539Y-108010261D01*
X160052569Y-108001425D01*
X160028012Y-107992159D01*
X159977053Y-107980566D01*
X159948006Y-107973942D01*
X159793414Y-107919572D01*
X159649264Y-107835169D01*
X159515429Y-107720660D01*
X159453054Y-107653637D01*
X159367727Y-107539250D01*
X159305138Y-107417680D01*
X159260047Y-107279882D01*
X159236515Y-107149332D01*
X159234417Y-107033118D01*
X159406430Y-107033118D01*
X159409815Y-107144879D01*
X159426782Y-107241599D01*
X159478642Y-107377223D01*
X159558333Y-107508871D01*
X159659523Y-107623658D01*
X159778187Y-107717063D01*
X159910298Y-107784564D01*
X159919001Y-107787813D01*
X160024394Y-107814821D01*
X160144323Y-107827651D01*
X160265686Y-107825641D01*
X160375382Y-107808125D01*
X160498958Y-107764950D01*
X160629640Y-107690457D01*
X160742801Y-107593493D01*
X160835639Y-107477652D01*
X160905353Y-107346528D01*
X160949140Y-107203714D01*
X160964199Y-107052806D01*
X160964142Y-107043422D01*
X160949177Y-106888009D01*
X160906872Y-106747700D01*
X160835906Y-106619303D01*
X160734954Y-106499623D01*
X160730898Y-106495589D01*
X160610438Y-106395401D01*
X160481009Y-106325275D01*
X160339819Y-106284050D01*
X160184075Y-106270566D01*
X160036206Y-106282829D01*
X159891994Y-106323337D01*
X159761079Y-106392584D01*
X159642391Y-106491007D01*
X159636781Y-106496664D01*
X159544882Y-106604044D01*
X159478729Y-106715866D01*
X159432911Y-106841179D01*
X159416418Y-106919985D01*
X159406430Y-107033118D01*
X159234417Y-107033118D01*
X159233550Y-106985106D01*
X159258598Y-106824668D01*
X159309722Y-106671530D01*
X159384989Y-106529204D01*
X159482466Y-106401202D01*
X159600217Y-106291036D01*
X159736308Y-106202218D01*
X159888805Y-106138259D01*
X159981376Y-106116663D01*
X160107315Y-106103026D01*
X160240279Y-106102110D01*
X160368284Y-106113911D01*
G37*
G36*
X159381705Y-81268753D02*
G01*
X159398530Y-81274300D01*
X159410073Y-81292721D01*
X159417325Y-81331451D01*
X159421278Y-81397925D01*
X159422923Y-81499577D01*
X159423251Y-81643843D01*
X159423214Y-81707612D01*
X159422474Y-81833802D01*
X159420018Y-81920376D01*
X159414854Y-81974769D01*
X159405991Y-82004416D01*
X159392437Y-82016752D01*
X159373202Y-82019212D01*
X159364699Y-82018933D01*
X159347874Y-82013385D01*
X159336331Y-81994964D01*
X159329078Y-81956234D01*
X159325125Y-81889760D01*
X159323481Y-81788108D01*
X159323153Y-81643843D01*
X159323190Y-81580073D01*
X159323930Y-81453883D01*
X159326386Y-81367309D01*
X159331550Y-81312916D01*
X159340413Y-81283269D01*
X159353966Y-81270933D01*
X159373202Y-81268473D01*
X159381705Y-81268753D01*
G37*
G36*
X159381705Y-82770231D02*
G01*
X159398530Y-82775778D01*
X159410073Y-82794199D01*
X159417325Y-82832929D01*
X159421278Y-82899403D01*
X159422923Y-83001055D01*
X159423251Y-83145321D01*
X159423214Y-83209090D01*
X159422474Y-83335280D01*
X159420018Y-83421854D01*
X159414854Y-83476247D01*
X159405991Y-83505894D01*
X159392437Y-83518230D01*
X159373202Y-83520690D01*
X159364699Y-83520410D01*
X159347874Y-83514863D01*
X159336331Y-83496442D01*
X159329078Y-83457712D01*
X159325125Y-83391238D01*
X159323481Y-83289586D01*
X159323153Y-83145321D01*
X159323190Y-83081551D01*
X159323930Y-82955361D01*
X159326386Y-82868787D01*
X159331550Y-82814394D01*
X159340413Y-82784747D01*
X159353966Y-82772411D01*
X159373202Y-82769951D01*
X159381705Y-82770231D01*
G37*
G36*
X159381705Y-88801167D02*
G01*
X159398530Y-88806714D01*
X159410073Y-88825135D01*
X159417325Y-88863865D01*
X159421278Y-88930339D01*
X159422923Y-89031991D01*
X159423251Y-89176256D01*
X159423214Y-89240026D01*
X159422474Y-89366216D01*
X159420018Y-89452790D01*
X159414854Y-89507183D01*
X159405991Y-89536830D01*
X159392437Y-89549166D01*
X159373202Y-89551626D01*
X159364699Y-89551346D01*
X159347874Y-89545799D01*
X159336331Y-89527378D01*
X159329078Y-89488648D01*
X159325125Y-89422174D01*
X159323481Y-89320522D01*
X159323153Y-89176256D01*
X159323190Y-89112487D01*
X159323930Y-88986297D01*
X159326386Y-88899723D01*
X159331550Y-88845330D01*
X159340413Y-88815683D01*
X159353966Y-88803347D01*
X159373202Y-88800887D01*
X159381705Y-88801167D01*
G37*
G36*
X159381705Y-91804122D02*
G01*
X159398530Y-91809670D01*
X159410073Y-91828091D01*
X159417325Y-91866821D01*
X159421278Y-91933295D01*
X159422923Y-92034947D01*
X159423251Y-92179212D01*
X159423214Y-92242982D01*
X159422474Y-92369172D01*
X159420018Y-92455745D01*
X159414854Y-92510139D01*
X159405991Y-92539786D01*
X159392437Y-92552122D01*
X159373202Y-92554582D01*
X159364699Y-92554302D01*
X159347874Y-92548755D01*
X159336331Y-92530333D01*
X159329078Y-92491603D01*
X159325125Y-92425130D01*
X159323481Y-92323478D01*
X159323153Y-92179212D01*
X159323190Y-92115442D01*
X159323930Y-91989253D01*
X159326386Y-91902679D01*
X159331550Y-91848286D01*
X159340413Y-91818639D01*
X159353966Y-91806303D01*
X159373202Y-91803843D01*
X159381705Y-91804122D01*
G37*
G36*
X160445352Y-83662591D02*
G01*
X160446962Y-83681776D01*
X160432839Y-83720854D01*
X160430787Y-83722334D01*
X160395899Y-83741086D01*
X160325674Y-83776140D01*
X160228152Y-83823683D01*
X160111370Y-83879906D01*
X159983368Y-83940996D01*
X159852183Y-84003143D01*
X159725853Y-84062537D01*
X159612418Y-84115366D01*
X159519916Y-84157819D01*
X159456385Y-84186086D01*
X159429864Y-84196355D01*
X159425422Y-84185969D01*
X159427767Y-84144554D01*
X159435989Y-84131543D01*
X159480913Y-84096218D01*
X159558082Y-84048594D01*
X159659872Y-83992286D01*
X159778654Y-83930904D01*
X159906804Y-83868061D01*
X160036695Y-83807369D01*
X160160701Y-83752440D01*
X160271196Y-83706886D01*
X160360554Y-83674318D01*
X160421148Y-83658349D01*
X160445352Y-83662591D01*
G37*
G36*
X160445352Y-91195005D02*
G01*
X160446962Y-91214190D01*
X160432839Y-91253268D01*
X160430787Y-91254748D01*
X160395899Y-91273500D01*
X160325674Y-91308554D01*
X160228152Y-91356097D01*
X160111370Y-91412319D01*
X159983368Y-91473410D01*
X159852183Y-91535557D01*
X159725853Y-91594951D01*
X159612418Y-91647780D01*
X159519916Y-91690233D01*
X159456385Y-91718500D01*
X159429864Y-91728769D01*
X159425422Y-91718383D01*
X159427767Y-91676968D01*
X159435989Y-91663957D01*
X159480913Y-91628631D01*
X159558082Y-91581008D01*
X159659872Y-91524700D01*
X159778654Y-91463318D01*
X159906804Y-91400475D01*
X160036695Y-91339783D01*
X160160701Y-91284854D01*
X160271196Y-91239299D01*
X160360554Y-91206732D01*
X160421148Y-91190763D01*
X160445352Y-91195005D01*
G37*
G36*
X160883182Y-85022447D02*
G01*
X160900008Y-85027995D01*
X160911551Y-85046416D01*
X160918803Y-85085146D01*
X160922756Y-85151620D01*
X160924401Y-85253272D01*
X160924729Y-85397537D01*
X160924692Y-85461307D01*
X160923952Y-85587497D01*
X160921496Y-85674071D01*
X160916332Y-85728464D01*
X160907469Y-85758111D01*
X160893915Y-85770447D01*
X160874680Y-85772907D01*
X160866177Y-85772627D01*
X160849352Y-85767080D01*
X160837809Y-85748659D01*
X160830556Y-85709929D01*
X160826603Y-85643455D01*
X160824958Y-85541803D01*
X160824630Y-85397537D01*
X160824668Y-85333767D01*
X160825407Y-85207578D01*
X160827864Y-85121004D01*
X160833028Y-85066611D01*
X160841891Y-85036964D01*
X160855444Y-85024628D01*
X160874680Y-85022168D01*
X160883182Y-85022447D01*
G37*
G36*
X161946829Y-80634611D02*
G01*
X161948440Y-80653796D01*
X161934317Y-80692874D01*
X161932265Y-80694353D01*
X161897377Y-80713106D01*
X161827152Y-80748160D01*
X161729630Y-80795703D01*
X161612848Y-80851925D01*
X161484846Y-80913016D01*
X161353660Y-80975163D01*
X161227331Y-81034557D01*
X161113896Y-81087386D01*
X161021394Y-81129839D01*
X160957863Y-81158106D01*
X160931341Y-81168375D01*
X160926900Y-81157989D01*
X160929245Y-81116574D01*
X160937466Y-81103563D01*
X160982390Y-81068237D01*
X161059560Y-81020614D01*
X161161349Y-80964306D01*
X161280132Y-80902924D01*
X161408282Y-80840081D01*
X161538173Y-80779389D01*
X161662179Y-80724460D01*
X161772674Y-80678905D01*
X161862032Y-80646338D01*
X161922625Y-80630369D01*
X161946829Y-80634611D01*
G37*
G36*
X161946829Y-90444266D02*
G01*
X161948440Y-90463451D01*
X161934317Y-90502529D01*
X161932265Y-90504009D01*
X161897377Y-90522761D01*
X161827152Y-90557815D01*
X161729630Y-90605358D01*
X161612848Y-90661580D01*
X161484846Y-90722671D01*
X161353660Y-90784818D01*
X161227331Y-90844212D01*
X161113896Y-90897041D01*
X161021394Y-90939494D01*
X160957863Y-90967761D01*
X160931341Y-90978030D01*
X160926900Y-90967644D01*
X160929245Y-90926229D01*
X160937466Y-90913218D01*
X160982390Y-90877892D01*
X161059560Y-90830269D01*
X161161349Y-90773961D01*
X161280132Y-90712579D01*
X161408282Y-90649736D01*
X161538173Y-90589044D01*
X161662179Y-90534115D01*
X161772674Y-90488561D01*
X161862032Y-90455993D01*
X161922625Y-90440024D01*
X161946829Y-90444266D01*
G37*
G36*
X162384660Y-82019492D02*
G01*
X162401485Y-82025039D01*
X162413029Y-82043460D01*
X162420281Y-82082190D01*
X162424234Y-82148664D01*
X162425879Y-82250316D01*
X162426207Y-82394582D01*
X162426170Y-82458351D01*
X162425430Y-82584541D01*
X162422974Y-82671115D01*
X162417810Y-82725508D01*
X162408947Y-82755155D01*
X162395393Y-82767491D01*
X162376158Y-82769951D01*
X162367655Y-82769671D01*
X162350830Y-82764124D01*
X162339286Y-82745703D01*
X162332034Y-82706973D01*
X162328081Y-82640499D01*
X162326436Y-82538847D01*
X162326108Y-82394582D01*
X162326146Y-82330812D01*
X162326885Y-82204622D01*
X162329341Y-82118048D01*
X162334505Y-82063655D01*
X162343369Y-82034008D01*
X162356922Y-82021672D01*
X162376158Y-82019212D01*
X162384660Y-82019492D01*
G37*
G36*
X162384660Y-85022447D02*
G01*
X162401485Y-85027995D01*
X162413029Y-85046416D01*
X162420281Y-85085146D01*
X162424234Y-85151620D01*
X162425879Y-85253272D01*
X162426207Y-85397537D01*
X162426170Y-85461307D01*
X162425430Y-85587497D01*
X162422974Y-85674071D01*
X162417810Y-85728464D01*
X162408947Y-85758111D01*
X162395393Y-85770447D01*
X162376158Y-85772907D01*
X162367655Y-85772627D01*
X162350830Y-85767080D01*
X162339286Y-85748659D01*
X162332034Y-85709929D01*
X162328081Y-85643455D01*
X162326436Y-85541803D01*
X162326108Y-85397537D01*
X162326146Y-85333767D01*
X162326885Y-85207578D01*
X162329341Y-85121004D01*
X162334505Y-85066611D01*
X162343369Y-85036964D01*
X162356922Y-85024628D01*
X162376158Y-85022168D01*
X162384660Y-85022447D01*
G37*
G36*
X162384660Y-87274664D02*
G01*
X162401485Y-87280212D01*
X162413029Y-87298633D01*
X162420281Y-87337363D01*
X162424234Y-87403836D01*
X162425879Y-87505489D01*
X162426207Y-87649754D01*
X162426170Y-87713524D01*
X162425430Y-87839713D01*
X162422974Y-87926287D01*
X162417810Y-87980680D01*
X162408947Y-88010328D01*
X162395393Y-88022664D01*
X162376158Y-88025123D01*
X162367655Y-88024844D01*
X162350830Y-88019297D01*
X162339286Y-88000875D01*
X162332034Y-87962145D01*
X162328081Y-87895672D01*
X162326436Y-87794019D01*
X162326108Y-87649754D01*
X162326146Y-87585984D01*
X162326885Y-87459795D01*
X162329341Y-87373221D01*
X162334505Y-87318828D01*
X162343369Y-87289180D01*
X162356922Y-87276844D01*
X162376158Y-87274385D01*
X162384660Y-87274664D01*
G37*
G36*
X162384660Y-88801167D02*
G01*
X162401485Y-88806714D01*
X162413029Y-88825135D01*
X162420281Y-88863865D01*
X162424234Y-88930339D01*
X162425879Y-89031991D01*
X162426207Y-89176256D01*
X162426170Y-89240026D01*
X162425430Y-89366216D01*
X162422974Y-89452790D01*
X162417810Y-89507183D01*
X162408947Y-89536830D01*
X162395393Y-89549166D01*
X162376158Y-89551626D01*
X162367655Y-89551346D01*
X162350830Y-89545799D01*
X162339286Y-89527378D01*
X162332034Y-89488648D01*
X162328081Y-89422174D01*
X162326436Y-89320522D01*
X162326108Y-89176256D01*
X162326146Y-89112487D01*
X162326885Y-88986297D01*
X162329341Y-88899723D01*
X162334505Y-88845330D01*
X162343369Y-88815683D01*
X162356922Y-88803347D01*
X162376158Y-88800887D01*
X162384660Y-88801167D01*
G37*
G36*
X163448307Y-89693527D02*
G01*
X163449918Y-89712712D01*
X163435795Y-89751790D01*
X163433743Y-89753270D01*
X163398855Y-89772022D01*
X163328630Y-89807076D01*
X163231108Y-89854619D01*
X163114326Y-89910842D01*
X162986323Y-89971932D01*
X162855138Y-90034079D01*
X162728809Y-90093473D01*
X162615374Y-90146302D01*
X162522872Y-90188755D01*
X162459341Y-90217022D01*
X162432819Y-90227291D01*
X162428378Y-90216905D01*
X162430722Y-90175490D01*
X162438944Y-90162479D01*
X162483868Y-90127154D01*
X162561038Y-90079530D01*
X162662827Y-90023222D01*
X162781610Y-89961840D01*
X162909760Y-89898997D01*
X163039651Y-89838305D01*
X163163657Y-89783376D01*
X163274152Y-89737822D01*
X163363509Y-89705254D01*
X163424103Y-89689285D01*
X163448307Y-89693527D01*
G37*
G36*
X163448307Y-91195005D02*
G01*
X163449918Y-91214190D01*
X163435795Y-91253268D01*
X163433743Y-91254748D01*
X163398855Y-91273500D01*
X163328630Y-91308554D01*
X163231108Y-91356097D01*
X163114326Y-91412319D01*
X162986323Y-91473410D01*
X162855138Y-91535557D01*
X162728809Y-91594951D01*
X162615374Y-91647780D01*
X162522872Y-91690233D01*
X162459341Y-91718500D01*
X162432819Y-91728769D01*
X162428378Y-91718383D01*
X162430722Y-91676968D01*
X162438944Y-91663957D01*
X162483868Y-91628631D01*
X162561038Y-91581008D01*
X162662827Y-91524700D01*
X162781610Y-91463318D01*
X162909760Y-91400475D01*
X163039651Y-91339783D01*
X163163657Y-91284854D01*
X163274152Y-91239299D01*
X163363509Y-91206732D01*
X163424103Y-91190763D01*
X163448307Y-91195005D01*
G37*
G36*
X163886138Y-88025403D02*
G01*
X163902963Y-88030950D01*
X163914506Y-88049372D01*
X163921759Y-88088102D01*
X163925712Y-88154575D01*
X163927357Y-88256227D01*
X163927685Y-88400493D01*
X163927647Y-88464263D01*
X163926908Y-88590452D01*
X163924452Y-88677026D01*
X163919288Y-88731419D01*
X163910424Y-88761067D01*
X163896871Y-88773403D01*
X163877635Y-88775862D01*
X163869133Y-88775583D01*
X163852307Y-88770035D01*
X163840764Y-88751614D01*
X163833512Y-88712884D01*
X163829559Y-88646411D01*
X163827914Y-88544758D01*
X163827586Y-88400493D01*
X163827623Y-88336723D01*
X163828363Y-88210534D01*
X163830819Y-88123960D01*
X163835983Y-88069567D01*
X163844846Y-88039919D01*
X163858400Y-88027583D01*
X163877635Y-88025123D01*
X163886138Y-88025403D01*
G37*
G36*
X159470256Y-80618209D02*
G01*
X159518514Y-80636728D01*
X159591623Y-80668751D01*
X159694711Y-80716189D01*
X159832905Y-80780956D01*
X160011330Y-80864963D01*
X160089383Y-80901947D01*
X160227976Y-80969578D01*
X160327794Y-81021964D01*
X160393851Y-81062021D01*
X160431163Y-81092661D01*
X160444745Y-81116799D01*
X160447371Y-81147618D01*
X160441951Y-81168375D01*
X160437320Y-81166890D01*
X160397283Y-81149628D01*
X160323584Y-81116057D01*
X160224582Y-81070014D01*
X160108634Y-81015336D01*
X160094699Y-81008727D01*
X159957905Y-80944072D01*
X159820450Y-80879461D01*
X159697616Y-80822057D01*
X159604680Y-80779026D01*
X159557671Y-80756856D01*
X159478132Y-80713613D01*
X159435756Y-80678301D01*
X159423251Y-80645558D01*
X159423203Y-80640901D01*
X159423323Y-80624538D01*
X159427788Y-80614026D01*
X159441723Y-80611279D01*
X159470256Y-80618209D01*
G37*
G36*
X159470256Y-92680080D02*
G01*
X159518514Y-92698600D01*
X159591623Y-92730623D01*
X159694711Y-92778061D01*
X159832905Y-92842827D01*
X160011330Y-92926835D01*
X160089383Y-92963819D01*
X160227976Y-93031450D01*
X160327794Y-93083836D01*
X160393851Y-93123893D01*
X160431163Y-93154533D01*
X160444745Y-93178671D01*
X160447371Y-93209490D01*
X160441951Y-93230247D01*
X160437320Y-93228762D01*
X160397283Y-93211500D01*
X160323584Y-93177929D01*
X160224582Y-93131886D01*
X160108634Y-93077208D01*
X160094699Y-93070599D01*
X159957905Y-93005944D01*
X159820450Y-92941333D01*
X159697616Y-92883929D01*
X159604680Y-92840898D01*
X159557671Y-92818728D01*
X159478132Y-92775484D01*
X159435756Y-92740173D01*
X159423251Y-92707430D01*
X159423203Y-92702773D01*
X159423323Y-92686410D01*
X159427788Y-92675898D01*
X159441723Y-92673151D01*
X159470256Y-92680080D01*
G37*
G36*
X160971734Y-83646189D02*
G01*
X161019992Y-83664709D01*
X161093101Y-83696731D01*
X161196189Y-83744169D01*
X161334382Y-83808936D01*
X161512808Y-83892943D01*
X161590860Y-83929927D01*
X161729454Y-83997558D01*
X161829272Y-84049945D01*
X161895329Y-84090001D01*
X161932641Y-84120641D01*
X161946223Y-84144780D01*
X161948849Y-84175599D01*
X161943429Y-84196355D01*
X161938798Y-84194870D01*
X161898761Y-84177608D01*
X161825062Y-84144037D01*
X161726059Y-84097994D01*
X161610112Y-84043317D01*
X161596177Y-84036707D01*
X161459383Y-83972053D01*
X161321928Y-83907441D01*
X161199093Y-83850037D01*
X161106158Y-83807006D01*
X161059148Y-83784836D01*
X160979610Y-83741593D01*
X160937234Y-83706281D01*
X160924729Y-83673538D01*
X160924681Y-83668881D01*
X160924801Y-83652518D01*
X160929266Y-83642006D01*
X160943201Y-83639259D01*
X160971734Y-83646189D01*
G37*
G36*
X160971734Y-93430819D02*
G01*
X161019992Y-93449339D01*
X161093101Y-93481362D01*
X161196189Y-93528800D01*
X161334382Y-93593566D01*
X161512808Y-93677574D01*
X161590860Y-93714558D01*
X161729454Y-93782189D01*
X161829272Y-93834575D01*
X161895329Y-93874632D01*
X161932641Y-93905272D01*
X161946223Y-93929410D01*
X161948849Y-93960229D01*
X161943429Y-93980986D01*
X161938798Y-93979500D01*
X161898761Y-93962239D01*
X161825062Y-93928668D01*
X161726059Y-93882625D01*
X161610112Y-93827947D01*
X161596177Y-93821338D01*
X161459383Y-93756683D01*
X161321928Y-93692072D01*
X161199093Y-93634668D01*
X161106158Y-93591637D01*
X161059148Y-93569467D01*
X160979610Y-93526223D01*
X160937234Y-93490912D01*
X160924729Y-93458169D01*
X160924681Y-93453512D01*
X160924801Y-93437149D01*
X160929266Y-93426637D01*
X160943201Y-93423890D01*
X160971734Y-93430819D01*
G37*
G36*
X162473212Y-80618209D02*
G01*
X162521470Y-80636728D01*
X162594579Y-80668751D01*
X162697667Y-80716189D01*
X162835860Y-80780956D01*
X163014286Y-80864963D01*
X163092338Y-80901947D01*
X163230932Y-80969578D01*
X163330749Y-81021964D01*
X163396807Y-81062021D01*
X163434119Y-81092661D01*
X163447701Y-81116799D01*
X163450327Y-81147618D01*
X163444906Y-81168375D01*
X163440276Y-81166890D01*
X163400239Y-81149628D01*
X163326540Y-81116057D01*
X163227537Y-81070014D01*
X163111590Y-81015336D01*
X163097655Y-81008727D01*
X162960860Y-80944072D01*
X162823406Y-80879461D01*
X162700571Y-80822057D01*
X162607635Y-80779026D01*
X162560626Y-80756856D01*
X162481088Y-80713613D01*
X162438712Y-80678301D01*
X162426207Y-80645558D01*
X162426159Y-80640901D01*
X162426279Y-80624538D01*
X162430743Y-80614026D01*
X162444679Y-80611279D01*
X162473212Y-80618209D01*
G37*
G36*
X162473212Y-92680080D02*
G01*
X162521470Y-92698600D01*
X162594579Y-92730623D01*
X162697667Y-92778061D01*
X162835860Y-92842827D01*
X163014286Y-92926835D01*
X163092338Y-92963819D01*
X163230932Y-93031450D01*
X163330749Y-93083836D01*
X163396807Y-93123893D01*
X163434119Y-93154533D01*
X163447701Y-93178671D01*
X163450327Y-93209490D01*
X163444906Y-93230247D01*
X163440276Y-93228762D01*
X163400239Y-93211500D01*
X163326540Y-93177929D01*
X163227537Y-93131886D01*
X163111590Y-93077208D01*
X163097655Y-93070599D01*
X162960860Y-93005944D01*
X162823406Y-92941333D01*
X162700571Y-92883929D01*
X162607635Y-92840898D01*
X162560626Y-92818728D01*
X162481088Y-92775484D01*
X162438712Y-92740173D01*
X162426207Y-92707430D01*
X162426159Y-92702773D01*
X162426279Y-92686410D01*
X162430743Y-92675898D01*
X162444679Y-92673151D01*
X162473212Y-92680080D01*
G37*
G36*
X162473212Y-94181558D02*
G01*
X162521470Y-94200078D01*
X162594579Y-94232101D01*
X162697667Y-94279539D01*
X162835860Y-94344305D01*
X163014286Y-94428313D01*
X163092338Y-94465296D01*
X163230932Y-94532927D01*
X163330749Y-94585314D01*
X163396807Y-94625370D01*
X163434119Y-94656011D01*
X163447701Y-94680149D01*
X163450327Y-94710968D01*
X163444906Y-94731724D01*
X163440276Y-94730239D01*
X163400239Y-94712978D01*
X163326540Y-94679407D01*
X163227537Y-94633364D01*
X163111590Y-94578686D01*
X163097655Y-94572077D01*
X162960860Y-94507422D01*
X162823406Y-94442810D01*
X162700571Y-94385407D01*
X162607635Y-94342376D01*
X162560626Y-94320206D01*
X162481088Y-94276962D01*
X162438712Y-94241651D01*
X162426207Y-94208908D01*
X162426159Y-94204251D01*
X162426279Y-94187888D01*
X162430743Y-94177376D01*
X162444679Y-94174628D01*
X162473212Y-94181558D01*
G37*
G36*
X159961616Y-82319524D02*
G01*
X160134780Y-82319846D01*
X160266126Y-82320939D01*
X160361429Y-82323265D01*
X160426459Y-82327286D01*
X160466990Y-82333464D01*
X160488794Y-82342261D01*
X160497643Y-82354138D01*
X160499310Y-82369557D01*
X160499108Y-82376591D01*
X160495086Y-82390444D01*
X160481422Y-82400952D01*
X160452343Y-82408576D01*
X160402077Y-82413778D01*
X160324852Y-82417021D01*
X160214894Y-82418765D01*
X160066433Y-82419473D01*
X159873694Y-82419606D01*
X159785773Y-82419590D01*
X159612609Y-82419268D01*
X159481263Y-82418175D01*
X159385960Y-82415849D01*
X159320930Y-82411828D01*
X159280399Y-82405650D01*
X159258595Y-82396853D01*
X159249746Y-82384976D01*
X159248079Y-82369557D01*
X159248281Y-82362523D01*
X159252303Y-82348670D01*
X159265967Y-82338162D01*
X159295046Y-82330538D01*
X159345312Y-82325336D01*
X159422537Y-82322093D01*
X159532495Y-82320349D01*
X159680956Y-82319641D01*
X159873694Y-82319508D01*
X159961616Y-82319524D01*
G37*
G36*
X159961616Y-86823957D02*
G01*
X160134780Y-86824279D01*
X160266126Y-86825372D01*
X160361429Y-86827699D01*
X160426459Y-86831720D01*
X160466990Y-86837898D01*
X160488794Y-86846695D01*
X160497643Y-86858571D01*
X160499310Y-86873990D01*
X160499108Y-86881024D01*
X160495086Y-86894877D01*
X160481422Y-86905385D01*
X160452343Y-86913009D01*
X160402077Y-86918212D01*
X160324852Y-86921454D01*
X160214894Y-86923198D01*
X160066433Y-86923906D01*
X159873694Y-86924040D01*
X159785773Y-86924024D01*
X159612609Y-86923702D01*
X159481263Y-86922609D01*
X159385960Y-86920282D01*
X159320930Y-86916261D01*
X159280399Y-86910083D01*
X159258595Y-86901286D01*
X159249746Y-86889410D01*
X159248079Y-86873990D01*
X159248281Y-86866957D01*
X159252303Y-86853104D01*
X159265967Y-86842596D01*
X159295046Y-86834972D01*
X159345312Y-86829769D01*
X159422537Y-86826527D01*
X159532495Y-86824783D01*
X159680956Y-86824075D01*
X159873694Y-86823941D01*
X159961616Y-86823957D01*
G37*
G36*
X159961616Y-89851938D02*
G01*
X160134780Y-89852259D01*
X160266126Y-89853353D01*
X160361429Y-89855679D01*
X160426459Y-89859700D01*
X160466990Y-89865878D01*
X160488794Y-89874675D01*
X160497643Y-89886552D01*
X160499310Y-89901971D01*
X160499108Y-89909005D01*
X160495086Y-89922858D01*
X160481422Y-89933365D01*
X160452343Y-89940990D01*
X160402077Y-89946192D01*
X160324852Y-89949434D01*
X160214894Y-89951179D01*
X160066433Y-89951887D01*
X159873694Y-89952020D01*
X159785773Y-89952004D01*
X159612609Y-89951682D01*
X159481263Y-89950589D01*
X159385960Y-89948263D01*
X159320930Y-89944241D01*
X159280399Y-89938063D01*
X159258595Y-89929267D01*
X159249746Y-89917390D01*
X159248079Y-89901971D01*
X159248281Y-89894937D01*
X159252303Y-89881084D01*
X159265967Y-89870576D01*
X159295046Y-89862952D01*
X159345312Y-89857750D01*
X159422537Y-89854507D01*
X159532495Y-89852763D01*
X159680956Y-89852055D01*
X159873694Y-89851922D01*
X159961616Y-89851938D01*
G37*
G36*
X161463094Y-86823957D02*
G01*
X161636257Y-86824279D01*
X161767604Y-86825372D01*
X161862907Y-86827699D01*
X161927937Y-86831720D01*
X161968468Y-86837898D01*
X161990272Y-86846695D01*
X161999121Y-86858571D01*
X162000788Y-86873990D01*
X162000586Y-86881024D01*
X161996564Y-86894877D01*
X161982899Y-86905385D01*
X161953821Y-86913009D01*
X161903555Y-86918212D01*
X161826329Y-86921454D01*
X161716372Y-86923198D01*
X161567911Y-86923906D01*
X161375172Y-86924040D01*
X161287251Y-86924024D01*
X161114087Y-86923702D01*
X160982741Y-86922609D01*
X160887438Y-86920282D01*
X160822408Y-86916261D01*
X160781877Y-86910083D01*
X160760073Y-86901286D01*
X160751224Y-86889410D01*
X160749557Y-86873990D01*
X160749759Y-86866957D01*
X160753781Y-86853104D01*
X160767445Y-86842596D01*
X160796524Y-86834972D01*
X160846790Y-86829769D01*
X160924015Y-86826527D01*
X161033973Y-86824783D01*
X161182434Y-86824075D01*
X161375172Y-86823941D01*
X161463094Y-86823957D01*
G37*
G36*
X161463094Y-87574696D02*
G01*
X161636257Y-87575018D01*
X161767604Y-87576111D01*
X161862907Y-87578438D01*
X161927937Y-87582459D01*
X161968468Y-87588637D01*
X161990272Y-87597433D01*
X161999121Y-87609310D01*
X162000788Y-87624729D01*
X162000586Y-87631763D01*
X161996564Y-87645616D01*
X161982899Y-87656124D01*
X161953821Y-87663748D01*
X161903555Y-87668951D01*
X161826329Y-87672193D01*
X161716372Y-87673937D01*
X161567911Y-87674645D01*
X161375172Y-87674779D01*
X161287251Y-87674762D01*
X161114087Y-87674441D01*
X160982741Y-87673348D01*
X160887438Y-87671021D01*
X160822408Y-87667000D01*
X160781877Y-87660822D01*
X160760073Y-87652025D01*
X160751224Y-87640148D01*
X160749557Y-87624729D01*
X160749759Y-87617696D01*
X160753781Y-87603843D01*
X160767445Y-87593335D01*
X160796524Y-87585711D01*
X160846790Y-87580508D01*
X160924015Y-87577266D01*
X161033973Y-87575521D01*
X161182434Y-87574813D01*
X161375172Y-87574680D01*
X161463094Y-87574696D01*
G37*
G36*
X161463094Y-89101199D02*
G01*
X161636257Y-89101521D01*
X161767604Y-89102614D01*
X161862907Y-89104940D01*
X161927937Y-89108961D01*
X161968468Y-89115139D01*
X161990272Y-89123936D01*
X161999121Y-89135813D01*
X162000788Y-89151232D01*
X162000586Y-89158266D01*
X161996564Y-89172119D01*
X161982899Y-89182626D01*
X161953821Y-89190251D01*
X161903555Y-89195453D01*
X161826329Y-89198696D01*
X161716372Y-89200440D01*
X161567911Y-89201148D01*
X161375172Y-89201281D01*
X161287251Y-89201265D01*
X161114087Y-89200943D01*
X160982741Y-89199850D01*
X160887438Y-89197524D01*
X160822408Y-89193502D01*
X160781877Y-89187324D01*
X160760073Y-89178528D01*
X160751224Y-89166651D01*
X160749557Y-89151232D01*
X160749759Y-89144198D01*
X160753781Y-89130345D01*
X160767445Y-89119837D01*
X160796524Y-89112213D01*
X160846790Y-89107011D01*
X160924015Y-89103768D01*
X161033973Y-89102024D01*
X161182434Y-89101316D01*
X161375172Y-89101183D01*
X161463094Y-89101199D01*
G37*
G36*
X162964572Y-86823957D02*
G01*
X163137735Y-86824279D01*
X163269082Y-86825372D01*
X163364384Y-86827699D01*
X163429415Y-86831720D01*
X163469946Y-86837898D01*
X163491750Y-86846695D01*
X163500599Y-86858571D01*
X163502266Y-86873990D01*
X163502063Y-86881024D01*
X163498041Y-86894877D01*
X163484377Y-86905385D01*
X163455298Y-86913009D01*
X163405033Y-86918212D01*
X163327807Y-86921454D01*
X163217850Y-86923198D01*
X163069388Y-86923906D01*
X162876650Y-86924040D01*
X162788729Y-86924024D01*
X162615565Y-86923702D01*
X162484218Y-86922609D01*
X162388916Y-86920282D01*
X162323886Y-86916261D01*
X162283355Y-86910083D01*
X162261551Y-86901286D01*
X162252701Y-86889410D01*
X162251034Y-86873990D01*
X162251237Y-86866957D01*
X162255259Y-86853104D01*
X162268923Y-86842596D01*
X162298002Y-86834972D01*
X162348268Y-86829769D01*
X162425493Y-86826527D01*
X162535450Y-86824783D01*
X162683912Y-86824075D01*
X162876650Y-86823941D01*
X162964572Y-86823957D01*
G37*
G36*
X163077463Y-83808964D02*
G01*
X163175888Y-83813351D01*
X163251029Y-83824895D01*
X163319698Y-83846706D01*
X163398705Y-83881892D01*
X163455761Y-83911094D01*
X163527999Y-83959767D01*
X163552315Y-83999006D01*
X163552309Y-84000268D01*
X163547210Y-84020754D01*
X163525951Y-84024525D01*
X163478771Y-84010158D01*
X163395911Y-83976234D01*
X163384712Y-83971514D01*
X163299716Y-83939864D01*
X163219778Y-83921083D01*
X163126573Y-83912081D01*
X163001773Y-83909767D01*
X162984830Y-83909793D01*
X162864706Y-83912734D01*
X162774016Y-83922728D01*
X162694434Y-83942864D01*
X162607635Y-83976234D01*
X162603110Y-83978155D01*
X162522023Y-84011190D01*
X162476188Y-84024730D01*
X162455844Y-84020195D01*
X162451231Y-83999006D01*
X162458023Y-83979530D01*
X162507753Y-83935213D01*
X162604842Y-83881892D01*
X162653603Y-83859364D01*
X162724484Y-83832435D01*
X162794932Y-83817050D01*
X162881758Y-83810099D01*
X163001773Y-83808473D01*
X163077463Y-83808964D01*
G37*
G36*
X163889487Y-94056881D02*
G01*
X163901800Y-94063285D01*
X163911137Y-94080850D01*
X163917908Y-94115132D01*
X163922525Y-94171685D01*
X163925399Y-94256065D01*
X163926943Y-94373828D01*
X163927568Y-94530529D01*
X163927685Y-94731724D01*
X163927624Y-94891723D01*
X163927149Y-95057952D01*
X163925848Y-95183993D01*
X163923309Y-95275401D01*
X163919120Y-95337731D01*
X163912869Y-95376540D01*
X163904146Y-95397382D01*
X163892539Y-95405814D01*
X163877635Y-95407389D01*
X163865784Y-95406568D01*
X163853470Y-95400164D01*
X163844134Y-95382599D01*
X163837363Y-95348317D01*
X163832746Y-95291764D01*
X163829871Y-95207384D01*
X163828327Y-95089621D01*
X163827703Y-94932919D01*
X163827586Y-94731724D01*
X163827647Y-94571726D01*
X163828121Y-94405497D01*
X163829422Y-94279456D01*
X163831962Y-94188048D01*
X163836151Y-94125718D01*
X163842401Y-94086909D01*
X163851125Y-94066067D01*
X163862732Y-94057635D01*
X163877635Y-94056059D01*
X163889487Y-94056881D01*
G37*
G36*
X159377410Y-87274446D02*
G01*
X159390780Y-87277144D01*
X159401260Y-87287719D01*
X159409203Y-87311443D01*
X159414960Y-87353589D01*
X159418882Y-87419426D01*
X159421321Y-87514226D01*
X159422627Y-87643262D01*
X159423154Y-87811804D01*
X159423251Y-88025123D01*
X159423247Y-88088244D01*
X159423067Y-88288788D01*
X159422362Y-88445996D01*
X159420781Y-88565140D01*
X159417971Y-88651492D01*
X159413582Y-88710322D01*
X159407262Y-88746903D01*
X159398659Y-88766506D01*
X159387423Y-88774402D01*
X159373202Y-88775862D01*
X159368994Y-88775801D01*
X159355624Y-88773103D01*
X159345144Y-88762528D01*
X159337201Y-88738803D01*
X159331444Y-88696658D01*
X159327522Y-88630821D01*
X159325083Y-88536021D01*
X159323776Y-88406985D01*
X159323250Y-88238443D01*
X159323153Y-88025123D01*
X159323157Y-87962003D01*
X159323337Y-87761459D01*
X159324042Y-87604251D01*
X159325623Y-87485107D01*
X159328433Y-87398755D01*
X159332822Y-87339925D01*
X159339142Y-87303344D01*
X159347744Y-87283741D01*
X159358981Y-87275845D01*
X159373202Y-87274385D01*
X159377410Y-87274446D01*
G37*
G36*
X159378742Y-84271568D02*
G01*
X159389656Y-84274395D01*
X159398623Y-84284210D01*
X159405833Y-84305320D01*
X159411479Y-84342031D01*
X159415750Y-84398649D01*
X159418840Y-84479479D01*
X159420938Y-84588829D01*
X159422237Y-84731003D01*
X159422928Y-84910309D01*
X159423202Y-85131051D01*
X159423251Y-85397537D01*
X159423245Y-85522189D01*
X159423119Y-85767763D01*
X159422683Y-85969513D01*
X159421745Y-86131743D01*
X159420113Y-86258762D01*
X159417597Y-86354873D01*
X159414004Y-86424385D01*
X159409144Y-86471601D01*
X159402826Y-86500830D01*
X159394856Y-86516376D01*
X159385046Y-86522546D01*
X159373202Y-86523646D01*
X159367662Y-86523506D01*
X159356747Y-86520680D01*
X159347781Y-86510864D01*
X159340571Y-86489754D01*
X159334925Y-86453043D01*
X159330654Y-86396426D01*
X159327564Y-86315595D01*
X159325466Y-86206246D01*
X159324167Y-86064071D01*
X159323476Y-85884766D01*
X159323202Y-85664023D01*
X159323153Y-85397537D01*
X159323159Y-85272886D01*
X159323284Y-85027311D01*
X159323721Y-84825562D01*
X159324659Y-84663331D01*
X159326291Y-84536313D01*
X159328807Y-84440201D01*
X159332399Y-84370690D01*
X159337259Y-84323473D01*
X159343578Y-84294245D01*
X159351547Y-84278699D01*
X159361358Y-84272529D01*
X159373202Y-84271429D01*
X159378742Y-84271568D01*
G37*
G36*
X161943901Y-91862541D02*
G01*
X161950739Y-91902427D01*
X161946814Y-91918235D01*
X161926135Y-91940033D01*
X161883007Y-91963859D01*
X161812201Y-91991705D01*
X161708488Y-92025562D01*
X161566640Y-92067422D01*
X161381428Y-92119277D01*
X161304979Y-92142237D01*
X161247160Y-92163466D01*
X161225059Y-92177059D01*
X161245275Y-92190069D01*
X161301637Y-92211721D01*
X161381463Y-92236799D01*
X161520608Y-92277062D01*
X161668682Y-92320707D01*
X161778448Y-92354670D01*
X161855565Y-92381124D01*
X161905693Y-92402241D01*
X161934492Y-92420192D01*
X161947620Y-92437150D01*
X161950739Y-92455288D01*
X161948034Y-92483531D01*
X161935881Y-92504532D01*
X161921871Y-92501446D01*
X161866372Y-92486589D01*
X161776856Y-92461545D01*
X161661688Y-92428665D01*
X161529231Y-92390298D01*
X161442321Y-92364962D01*
X161315264Y-92327941D01*
X161208669Y-92296904D01*
X161131731Y-92274527D01*
X161093645Y-92263488D01*
X161064753Y-92242137D01*
X161049852Y-92179212D01*
X161057855Y-92129637D01*
X161093645Y-92094274D01*
X161149851Y-92077457D01*
X161254776Y-92046578D01*
X161376202Y-92011266D01*
X161504910Y-91974159D01*
X161631677Y-91937889D01*
X161747281Y-91905093D01*
X161842503Y-91878404D01*
X161908120Y-91860459D01*
X161934910Y-91853892D01*
X161943901Y-91862541D01*
G37*
G36*
X163883175Y-82019351D02*
G01*
X163894090Y-82022178D01*
X163903057Y-82031994D01*
X163910267Y-82053104D01*
X163915912Y-82089814D01*
X163920184Y-82146432D01*
X163923273Y-82227263D01*
X163925372Y-82336612D01*
X163926671Y-82478787D01*
X163927362Y-82658092D01*
X163927636Y-82878835D01*
X163927685Y-83145321D01*
X163927678Y-83269972D01*
X163927553Y-83515546D01*
X163927117Y-83717296D01*
X163926178Y-83879527D01*
X163924547Y-84006545D01*
X163922030Y-84102657D01*
X163918438Y-84172168D01*
X163913578Y-84219385D01*
X163907259Y-84248613D01*
X163899290Y-84264159D01*
X163889479Y-84270329D01*
X163877635Y-84271429D01*
X163872095Y-84271290D01*
X163861181Y-84268463D01*
X163852214Y-84258647D01*
X163845004Y-84237537D01*
X163839359Y-84200827D01*
X163835087Y-84144209D01*
X163831998Y-84063378D01*
X163829899Y-83954029D01*
X163828600Y-83811855D01*
X163827909Y-83632549D01*
X163827635Y-83411806D01*
X163827586Y-83145321D01*
X163827592Y-83020669D01*
X163827718Y-82775095D01*
X163828154Y-82573345D01*
X163829092Y-82411114D01*
X163830724Y-82284096D01*
X163833240Y-82187984D01*
X163836833Y-82118473D01*
X163841693Y-82071256D01*
X163848012Y-82042028D01*
X163855981Y-82026482D01*
X163865792Y-82020312D01*
X163877635Y-82019212D01*
X163883175Y-82019351D01*
G37*
G36*
X163883175Y-85022307D02*
G01*
X163894090Y-85025134D01*
X163903057Y-85034949D01*
X163910267Y-85056059D01*
X163915912Y-85092770D01*
X163920184Y-85149388D01*
X163923273Y-85230218D01*
X163925372Y-85339568D01*
X163926671Y-85481742D01*
X163927362Y-85661048D01*
X163927636Y-85881790D01*
X163927685Y-86148276D01*
X163927678Y-86272928D01*
X163927553Y-86518502D01*
X163927117Y-86720252D01*
X163926178Y-86882482D01*
X163924547Y-87009501D01*
X163922030Y-87105612D01*
X163918438Y-87175124D01*
X163913578Y-87222340D01*
X163907259Y-87251569D01*
X163899290Y-87267115D01*
X163889479Y-87273285D01*
X163877635Y-87274385D01*
X163872095Y-87274245D01*
X163861181Y-87271419D01*
X163852214Y-87261603D01*
X163845004Y-87240493D01*
X163839359Y-87203782D01*
X163835087Y-87147165D01*
X163831998Y-87066334D01*
X163829899Y-86956985D01*
X163828600Y-86814810D01*
X163827909Y-86635505D01*
X163827635Y-86414762D01*
X163827586Y-86148276D01*
X163827592Y-86023625D01*
X163827718Y-85778050D01*
X163828154Y-85576301D01*
X163829092Y-85414070D01*
X163830724Y-85287052D01*
X163833240Y-85190940D01*
X163836833Y-85121429D01*
X163841693Y-85074212D01*
X163848012Y-85044984D01*
X163855981Y-85029437D01*
X163865792Y-85023268D01*
X163877635Y-85022168D01*
X163883175Y-85022307D01*
G37*
G36*
X158812648Y-81418046D02*
G01*
X158890783Y-81478675D01*
X158943870Y-81568566D01*
X158965490Y-81682101D01*
X158949224Y-81813663D01*
X158927974Y-81877543D01*
X158900785Y-81910857D01*
X158858590Y-81919114D01*
X158852961Y-81919106D01*
X158815601Y-81915426D01*
X158810968Y-81895453D01*
X158834530Y-81845282D01*
X158866716Y-81751214D01*
X158868910Y-81654773D01*
X158841780Y-81572495D01*
X158789024Y-81515198D01*
X158714340Y-81493695D01*
X158699620Y-81494883D01*
X158623209Y-81522563D01*
X158525600Y-81582899D01*
X158414595Y-81670525D01*
X158297998Y-81780075D01*
X158233035Y-81841785D01*
X158157267Y-81899109D01*
X158104057Y-81919114D01*
X158090414Y-81918805D01*
X158069579Y-81912950D01*
X158056748Y-81892688D01*
X158049983Y-81849108D01*
X158047345Y-81773301D01*
X158046896Y-81656355D01*
X158046921Y-81623438D01*
X158047974Y-81517099D01*
X158051818Y-81449793D01*
X158060137Y-81412674D01*
X158074618Y-81396891D01*
X158096946Y-81393596D01*
X158108547Y-81394132D01*
X158129286Y-81403397D01*
X158140866Y-81432133D01*
X158145898Y-81490526D01*
X158146995Y-81588765D01*
X158146995Y-81783934D01*
X158295696Y-81639326D01*
X158309164Y-81626347D01*
X158391416Y-81551245D01*
X158469164Y-81486267D01*
X158527174Y-81444251D01*
X158606907Y-81407050D01*
X158715883Y-81392298D01*
X158812648Y-81418046D01*
G37*
G36*
X158812648Y-82919524D02*
G01*
X158890783Y-82980152D01*
X158943870Y-83070044D01*
X158965490Y-83183579D01*
X158949224Y-83315141D01*
X158927974Y-83379021D01*
X158900785Y-83412334D01*
X158858590Y-83420591D01*
X158852961Y-83420584D01*
X158815601Y-83416904D01*
X158810968Y-83396931D01*
X158834530Y-83346760D01*
X158866716Y-83252692D01*
X158868910Y-83156251D01*
X158841780Y-83073973D01*
X158789024Y-83016675D01*
X158714340Y-82995173D01*
X158699620Y-82996361D01*
X158623209Y-83024041D01*
X158525600Y-83084377D01*
X158414595Y-83172003D01*
X158297998Y-83281552D01*
X158233035Y-83343263D01*
X158157267Y-83400586D01*
X158104057Y-83420591D01*
X158090414Y-83420282D01*
X158069579Y-83414428D01*
X158056748Y-83394166D01*
X158049983Y-83350586D01*
X158047345Y-83274779D01*
X158046896Y-83157833D01*
X158046921Y-83124916D01*
X158047974Y-83018576D01*
X158051818Y-82951271D01*
X158060137Y-82914152D01*
X158074618Y-82898369D01*
X158096946Y-82895074D01*
X158108547Y-82895610D01*
X158129286Y-82904875D01*
X158140866Y-82933610D01*
X158145898Y-82992004D01*
X158146995Y-83090243D01*
X158146995Y-83285412D01*
X158295696Y-83140804D01*
X158309164Y-83127824D01*
X158391416Y-83052723D01*
X158469164Y-82987744D01*
X158527174Y-82945729D01*
X158606907Y-82908528D01*
X158715883Y-82893776D01*
X158812648Y-82919524D01*
G37*
G36*
X163880559Y-88800919D02*
G01*
X163890514Y-88802606D01*
X163898958Y-88809585D01*
X163906016Y-88825587D01*
X163911811Y-88854341D01*
X163916469Y-88899576D01*
X163920113Y-88965022D01*
X163922868Y-89054410D01*
X163924858Y-89171469D01*
X163926207Y-89319928D01*
X163927040Y-89503517D01*
X163927481Y-89725967D01*
X163927654Y-89991006D01*
X163927685Y-90302365D01*
X163927684Y-90390080D01*
X163927627Y-90688730D01*
X163927395Y-90942054D01*
X163926861Y-91153783D01*
X163925903Y-91327646D01*
X163924395Y-91467372D01*
X163922213Y-91576692D01*
X163919234Y-91659335D01*
X163915332Y-91719031D01*
X163910383Y-91759509D01*
X163904264Y-91784500D01*
X163896849Y-91797732D01*
X163888014Y-91802937D01*
X163877635Y-91803843D01*
X163874712Y-91803811D01*
X163864757Y-91802124D01*
X163856312Y-91795144D01*
X163849255Y-91779143D01*
X163843459Y-91750389D01*
X163838802Y-91705154D01*
X163835158Y-91639707D01*
X163832403Y-91550320D01*
X163830413Y-91433261D01*
X163829064Y-91284802D01*
X163828231Y-91101213D01*
X163827790Y-90878763D01*
X163827616Y-90613724D01*
X163827586Y-90302365D01*
X163827587Y-90214650D01*
X163827643Y-89916000D01*
X163827876Y-89662675D01*
X163828409Y-89450946D01*
X163829368Y-89277084D01*
X163830876Y-89137357D01*
X163833057Y-89028038D01*
X163836037Y-88945395D01*
X163839939Y-88885699D01*
X163844887Y-88845221D01*
X163851007Y-88820230D01*
X163858422Y-88806997D01*
X163867257Y-88801793D01*
X163877635Y-88800887D01*
X163880559Y-88800919D01*
G37*
G36*
X158354522Y-80576009D02*
G01*
X158372217Y-80617833D01*
X158372867Y-80630069D01*
X158381006Y-80647609D01*
X158405321Y-80658687D01*
X158454281Y-80664777D01*
X158536351Y-80667351D01*
X158660000Y-80667882D01*
X158947783Y-80667882D01*
X158947783Y-80739537D01*
X158947150Y-80753628D01*
X158938236Y-80785117D01*
X158913505Y-80818294D01*
X158866285Y-80859343D01*
X158789901Y-80914445D01*
X158677683Y-80989783D01*
X158595091Y-81042926D01*
X158480416Y-81110563D01*
X158393390Y-81153408D01*
X158386349Y-81155376D01*
X158339850Y-81168375D01*
X158313005Y-81167652D01*
X158289405Y-81159056D01*
X158277263Y-81132065D01*
X158272770Y-81076126D01*
X158272118Y-80980690D01*
X158272118Y-80930641D01*
X158372217Y-80930641D01*
X158373475Y-80987244D01*
X158378608Y-81045638D01*
X158386349Y-81068276D01*
X158398249Y-81063522D01*
X158444263Y-81038545D01*
X158513644Y-80998121D01*
X158595296Y-80949031D01*
X158678122Y-80898057D01*
X158751022Y-80851981D01*
X158802901Y-80817584D01*
X158822660Y-80801648D01*
X158816969Y-80799719D01*
X158773526Y-80796275D01*
X158696626Y-80793894D01*
X158597438Y-80793005D01*
X158372217Y-80793005D01*
X158372217Y-80930641D01*
X158272118Y-80930641D01*
X158272118Y-80793005D01*
X158159507Y-80793005D01*
X158129134Y-80792766D01*
X158074506Y-80787340D01*
X158051564Y-80769049D01*
X158046896Y-80730444D01*
X158047327Y-80713569D01*
X158057094Y-80683221D01*
X158090018Y-80670475D01*
X158159507Y-80667882D01*
X158167597Y-80667863D01*
X158234155Y-80663900D01*
X158264750Y-80649110D01*
X158272118Y-80617833D01*
X158280344Y-80585479D01*
X158322167Y-80567784D01*
X158354522Y-80576009D01*
G37*
G36*
X158637153Y-82115354D02*
G01*
X158768072Y-82140013D01*
X158862057Y-82185368D01*
X158924602Y-82253270D01*
X158956453Y-82317805D01*
X158969538Y-82415543D01*
X158936373Y-82517573D01*
X158888085Y-82580955D01*
X158797515Y-82635853D01*
X158668484Y-82667812D01*
X158497340Y-82678169D01*
X158439221Y-82675637D01*
X158366388Y-82672464D01*
X158224947Y-82645741D01*
X158220646Y-82643636D01*
X158123664Y-82596171D01*
X158092846Y-82560877D01*
X158359902Y-82560877D01*
X158381986Y-82567100D01*
X158439221Y-82567166D01*
X158539023Y-82562896D01*
X158590304Y-82559796D01*
X158720669Y-82542106D01*
X158808164Y-82510593D01*
X158857330Y-82463000D01*
X158872709Y-82397069D01*
X158868216Y-82341430D01*
X158845664Y-82297394D01*
X158799853Y-82288017D01*
X158726058Y-82312818D01*
X158619551Y-82371316D01*
X158598881Y-82383900D01*
X158509511Y-82440361D01*
X158434367Y-82490886D01*
X158387938Y-82525810D01*
X158365551Y-82546675D01*
X158359902Y-82560877D01*
X158092846Y-82560877D01*
X158059486Y-82522671D01*
X158035367Y-82465914D01*
X158029394Y-82380859D01*
X158121970Y-82380859D01*
X158122319Y-82388898D01*
X158141206Y-82448229D01*
X158178721Y-82498501D01*
X158220646Y-82519705D01*
X158222937Y-82519272D01*
X158257273Y-82502195D01*
X158319758Y-82465474D01*
X158399121Y-82416306D01*
X158484096Y-82361887D01*
X158563413Y-82309414D01*
X158625804Y-82266086D01*
X158660000Y-82239097D01*
X158660635Y-82228325D01*
X158626885Y-82219914D01*
X158563123Y-82218206D01*
X158480580Y-82222278D01*
X158390486Y-82231207D01*
X158304071Y-82244072D01*
X158232566Y-82259951D01*
X158187200Y-82277922D01*
X158145106Y-82317095D01*
X158121970Y-82380859D01*
X158029394Y-82380859D01*
X158027972Y-82360604D01*
X158070078Y-82253270D01*
X158119605Y-82195536D01*
X158207711Y-82146382D01*
X158331792Y-82118246D01*
X158497340Y-82109279D01*
X158637153Y-82115354D01*
G37*
%TD*%
M02*
