M48
; DRILL file {KiCad 8.0.5} date 2024-12-10T05:35:53-0800
; FORMAT={-:-/ absolute / inch / decimal}
; #@! TF.CreationDate,2024-12-10T05:35:53-08:00
; #@! TF.GenerationSoftware,Kicad,Pcbnew,8.0.5
; #@! TF.FileFunction,Plated,1,2,PTH
FMAT,2
INCH
; #@! TA.AperFunction,Plated,PTH,ViaDrill
T1C0.0118
; #@! TA.AperFunction,Plated,PTH,ComponentDrill
T2C0.0394
%
G90
G05
T1
X6.2205Y-3.5354
X6.437Y-3.4882
T2
X5.7717Y-3.2087
X5.7717Y-3.3087
X5.7717Y-3.4087
X5.7717Y-3.5087
X5.7717Y-3.6087
X5.7717Y-3.7087
X5.7717Y-3.9094
X5.7717Y-4.0094
X5.7717Y-4.1094
X5.7717Y-4.2094
X5.7717Y-4.3094
X5.7717Y-4.4094
X6.0122Y-3.3608
X6.0122Y-3.4608
X6.0122Y-3.5608
X6.0122Y-3.6608
X6.0122Y-3.7608
X6.0122Y-3.8608
X6.0122Y-3.9608
X6.0122Y-4.0608
X6.0122Y-4.1608
X6.0122Y-4.2608
X6.1122Y-3.3608
X6.1122Y-3.4608
X6.1122Y-3.5608
X6.1122Y-3.6608
X6.1122Y-3.7608
X6.1122Y-3.8608
X6.1122Y-3.9608
X6.1122Y-4.0608
X6.1122Y-4.1608
X6.1122Y-4.2608
M30
