%TF.GenerationSoftware,KiCad,Pcbnew,8.0.5*%
%TF.CreationDate,2024-12-10T05:35:49-08:00*%
%TF.ProjectId,SmartPortAdapter,536d6172-7450-46f7-9274-416461707465,1*%
%TF.SameCoordinates,Original*%
%TF.FileFunction,Soldermask,Top*%
%TF.FilePolarity,Negative*%
%FSLAX46Y46*%
G04 Gerber Fmt 4.6, Leading zero omitted, Abs format (unit mm)*
G04 Created by KiCad (PCBNEW 8.0.5) date 2024-12-10 05:35:49*
%MOMM*%
%LPD*%
G01*
G04 APERTURE LIST*
G04 Aperture macros list*
%AMRoundRect*
0 Rectangle with rounded corners*
0 $1 Rounding radius*
0 $2 $3 $4 $5 $6 $7 $8 $9 X,Y pos of 4 corners*
0 Add a 4 corners polygon primitive as box body*
4,1,4,$2,$3,$4,$5,$6,$7,$8,$9,$2,$3,0*
0 Add four circle primitives for the rounded corners*
1,1,$1+$1,$2,$3*
1,1,$1+$1,$4,$5*
1,1,$1+$1,$6,$7*
1,1,$1+$1,$8,$9*
0 Add four rect primitives between the rounded corners*
20,1,$1+$1,$2,$3,$4,$5,0*
20,1,$1+$1,$4,$5,$6,$7,0*
20,1,$1+$1,$6,$7,$8,$9,0*
20,1,$1+$1,$8,$9,$2,$3,0*%
%AMFreePoly0*
4,1,19,0.500000,-0.750000,0.000000,-0.750000,0.000000,-0.744911,-0.071157,-0.744911,-0.207708,-0.704816,-0.327430,-0.627875,-0.420627,-0.520320,-0.479746,-0.390866,-0.500000,-0.250000,-0.500000,0.250000,-0.479746,0.390866,-0.420627,0.520320,-0.327430,0.627875,-0.207708,0.704816,-0.071157,0.744911,0.000000,0.744911,0.000000,0.750000,0.500000,0.750000,0.500000,-0.750000,0.500000,-0.750000,
$1*%
%AMFreePoly1*
4,1,19,0.000000,0.744911,0.071157,0.744911,0.207708,0.704816,0.327430,0.627875,0.420627,0.520320,0.479746,0.390866,0.500000,0.250000,0.500000,-0.250000,0.479746,-0.390866,0.420627,-0.520320,0.327430,-0.627875,0.207708,-0.704816,0.071157,-0.744911,0.000000,-0.744911,0.000000,-0.750000,-0.500000,-0.750000,-0.500000,0.750000,0.000000,0.750000,0.000000,0.744911,0.000000,0.744911,
$1*%
G04 Aperture macros list end*
%ADD10FreePoly0,90.000000*%
%ADD11FreePoly1,90.000000*%
%ADD12RoundRect,0.250000X0.600000X0.600000X-0.600000X0.600000X-0.600000X-0.600000X0.600000X-0.600000X0*%
%ADD13C,1.700000*%
%ADD14FreePoly0,270.000000*%
%ADD15FreePoly1,270.000000*%
%ADD16R,1.700000X1.700000*%
%ADD17O,1.700000X1.700000*%
%ADD18R,3.480000X1.846667*%
G04 APERTURE END LIST*
D10*
%TO.C,-12V*%
X161500000Y-98050000D03*
D11*
X161500000Y-96750000D03*
%TD*%
D12*
%TO.C,J1*%
X155250000Y-108225000D03*
D13*
X152710000Y-108225000D03*
X155250000Y-105685000D03*
X152710000Y-105685000D03*
X155250000Y-103145000D03*
X152710000Y-103145000D03*
X155250000Y-100605000D03*
X152710000Y-100605000D03*
X155250000Y-98065000D03*
X152710000Y-98065000D03*
X155250000Y-95525000D03*
X152710000Y-95525000D03*
X155250000Y-92985000D03*
X152710000Y-92985000D03*
X155250000Y-90445000D03*
X152710000Y-90445000D03*
X155250000Y-87905000D03*
X152710000Y-87905000D03*
X155250000Y-85365000D03*
X152710000Y-85365000D03*
%TD*%
D14*
%TO.C,D1*%
X161500000Y-86200000D03*
D15*
X161500000Y-87500000D03*
%TD*%
D16*
%TO.C,J3*%
X146600000Y-112000000D03*
D17*
X146600000Y-109460000D03*
X146600000Y-106920000D03*
X146600000Y-104380000D03*
X146600000Y-101840000D03*
X146600000Y-99300000D03*
%TD*%
D10*
%TO.C,D2*%
X161500000Y-84000000D03*
D11*
X161500000Y-82700000D03*
%TD*%
D10*
%TO.C,+12V*%
X161500000Y-91000000D03*
D11*
X161500000Y-89700000D03*
%TD*%
D10*
%TO.C,+5V*%
X161500000Y-94550000D03*
D11*
X161500000Y-93250000D03*
%TD*%
D16*
%TO.C,J2*%
X146600000Y-81500000D03*
D17*
X146600000Y-84040000D03*
X146600000Y-86580000D03*
X146600000Y-89120000D03*
X146600000Y-91660000D03*
X146600000Y-94200000D03*
%TD*%
D18*
%TO.C,U1*%
X166700000Y-109365000D03*
X166700000Y-106595000D03*
X166700000Y-103825000D03*
X166700000Y-101055000D03*
X166700000Y-98285000D03*
X166700000Y-95515000D03*
X166700000Y-92745000D03*
X166700000Y-89975000D03*
X166700000Y-87205000D03*
X166700000Y-84435000D03*
%TD*%
M02*
